<?xml version="1.0" encoding="utf-8"?>
<svg xmlns="http://www.w3.org/2000/svg" viewBox="0 0 500 150">
  <title>Sorana EPS</title>
  <path class="a" d="M 2.474 69.1 C 7.763 72.006 13.807 73.565 19.976 73.615 C 29.952 73.615 35.781 68.795 35.781 61.824 C 35.781 55.361 31.747 51.669 21.543 48.085 C 9.211 44.083 1.593 38.241 1.593 28.493 C 1.593 17.741 11.346 9.725 26.028 9.725 C 33.764 9.725 39.365 11.368 42.727 13.112 L 40.038 20.393 C 35.623 18.224 30.687 17.097 25.676 17.114 C 15.361 17.114 11.437 22.753 11.437 27.472 C 11.437 33.935 16.007 37.113 26.453 40.804 C 39.228 45.32 45.73 50.959 45.73 61.113 C 45.73 71.782 37.1 81.01 19.278 81.01 C 11.992 81.01 4.034 79.063 0 76.602 L 2.474 69.1 Z" style="fill: rgb(0, 99, 115);"/>
  <path class="a" d="M 111.3 54.74 C 111.3 73.096 97.402 81.1 84.286 81.1 C 69.604 81.1 58.284 71.256 58.284 55.558 C 58.284 38.946 70.166 29.198 85.187 29.198 C 100.764 29.204 111.3 39.562 111.3 54.74 Z M 68.26 55.253 C 68.26 66.125 75.095 74.332 84.737 74.332 C 94.151 74.332 101.214 66.232 101.214 55.05 C 101.214 46.64 96.644 35.972 84.959 35.972 C 73.273 35.972 68.286 45.822 68.286 55.253 L 68.26 55.253 Z" style="fill: rgb(0, 99, 115);"/>
  <path class="a" d="M 123.743 45.822 C 123.743 39.974 123.632 34.95 123.293 30.333 L 131.923 30.333 L 132.263 40.075 L 132.713 40.075 C 135.181 33.409 141.122 29.204 147.728 29.204 C 148.672 29.194 149.614 29.299 150.529 29.514 L 150.529 38.026 C 149.424 37.808 148.296 37.706 147.167 37.722 C 140.221 37.722 135.285 42.542 133.94 49.31 C 133.664 50.69 133.514 52.089 133.49 53.491 L 133.49 79.953 L 123.743 79.953 L 123.743 45.822 Z" style="fill: rgb(0, 99, 115);"/>
  <path class="a" d="M 195.463 79.971 L 194.679 73.717 L 194.347 73.717 C 191.317 77.618 185.494 81.1 177.758 81.1 C 166.771 81.1 161.17 74.022 161.17 66.842 C 161.17 54.841 172.829 48.277 193.811 48.378 L 193.811 47.357 C 193.811 43.253 192.577 35.87 181.479 35.87 C 176.489 35.886 171.602 37.166 167.359 39.568 L 165.119 33.594 C 169.604 30.924 176.107 29.186 182.942 29.186 C 199.53 29.186 203.564 39.55 203.564 49.495 L 203.564 68.06 C 203.492 72.043 203.791 76.023 204.459 79.959 L 195.463 79.971 Z M 194.007 54.638 C 183.248 54.435 171.028 56.179 171.028 65.82 C 171.028 71.668 175.284 74.434 180.33 74.434 C 186.214 74.577 191.52 71.215 193.446 66.125 C 193.795 65.2 193.984 64.231 194.007 63.252 L 194.007 54.638 Z" style="fill: rgb(0, 99, 115);"/>
  <path class="a" d="M 219.448 43.767 C 219.448 38.636 219.337 34.43 218.997 30.327 L 227.739 30.327 L 228.3 38.534 L 228.522 38.534 C 231.212 33.815 237.492 29.198 246.455 29.198 C 253.969 29.198 265.622 33.302 265.622 50.325 L 265.622 79.971 L 255.764 79.971 L 255.764 51.359 C 255.764 43.361 252.5 36.694 243.211 36.694 C 236.682 36.694 231.662 40.876 229.984 45.923 C 229.518 47.275 229.298 48.688 229.332 50.104 L 229.332 79.971 L 219.448 79.971 L 219.448 43.767 Z" style="fill: rgb(0, 99, 115);"/>
  <path class="a" d="M 315.883 79.971 L 315.1 73.717 L 314.76 73.717 C 311.738 77.618 305.902 81.1 298.172 81.1 C 287.185 81.1 281.584 74.022 281.584 66.842 C 281.584 54.841 293.243 48.277 314.225 48.378 L 314.225 47.357 C 314.225 43.253 312.991 35.87 301.893 35.87 C 296.901 35.885 292.011 37.164 287.766 39.568 L 285.527 33.594 C 290.012 30.924 296.514 29.186 303.349 29.186 C 319.937 29.186 323.972 39.55 323.972 49.495 L 323.972 68.06 C 323.892 72.046 324.185 76.031 324.847 79.971 L 315.883 79.971 Z M 314.401 54.638 C 303.643 54.435 291.422 56.179 291.422 65.82 C 291.422 71.668 295.685 74.434 300.725 74.434 C 306.609 74.577 311.915 71.215 313.84 66.125 C 314.189 65.2 314.379 64.231 314.401 63.252 L 314.401 54.638 Z" style="fill: rgb(0, 99, 115);"/>
  <path class="b" d="M 98.139 125.386 C 97.247 123.2 96.292 120.894 95.274 118.469 C 94.255 116.044 93.213 113.567 92.146 111.038 C 91.076 108.51 90.053 106.12 89.078 103.87 L 90.175 104.008 C 90.849 104.087 91.531 104.087 92.205 104.008 L 93.302 103.87 C 93.898 105.611 94.551 107.435 95.26 109.342 C 95.969 111.25 96.729 113.193 97.539 115.172 C 98.339 117.163 99.16 119.166 100 121.181 C 100.84 123.196 101.693 125.211 102.559 127.226 C 103.046 126.147 103.575 124.942 104.145 123.612 C 104.715 122.282 105.292 120.898 105.875 119.461 C 106.458 118.027 107.033 116.566 107.599 115.076 C 108.164 113.587 108.713 112.158 109.244 110.787 C 109.77 109.418 110.251 108.139 110.687 106.953 C 111.122 105.766 111.487 104.739 111.784 103.87 C 112.765 104.135 113.811 104.135 114.793 103.87 C 112.682 108.454 110.65 112.998 108.696 117.501 C 106.741 122.005 104.872 126.512 103.088 131.019 C 102.644 130.966 102.197 130.94 101.75 130.941 C 101.302 130.935 100.854 130.961 100.411 131.019 C 99.788 129.45 99.031 127.572 98.139 125.386 Z" style="fill: rgb(123, 106, 93);"/>
  <path class="b" d="M 117.052 114.598 C 118.636 112.755 120.945 111.833 123.978 111.833 C 125.253 111.804 126.52 112.026 127.693 112.484 C 128.686 112.89 129.576 113.482 130.304 114.222 C 131.018 114.962 131.552 115.831 131.871 116.773 C 132.216 117.784 132.387 118.838 132.38 119.897 C 132.38 120.16 132.38 120.416 132.38 120.667 C 132.38 120.918 132.361 121.175 132.321 121.438 L 127.974 121.36 C 126.537 121.336 125.088 121.323 123.626 121.318 C 122.733 121.318 121.846 121.333 120.962 121.36 L 118.299 121.438 C 118.267 121.636 118.254 121.836 118.26 122.035 L 118.26 122.561 C 118.252 123.539 118.41 124.512 118.73 125.446 C 119.01 126.292 119.471 127.077 120.087 127.758 C 120.69 128.409 121.438 128.934 122.281 129.299 C 123.221 129.704 124.251 129.909 125.29 129.896 C 125.853 129.894 126.413 129.822 126.955 129.681 C 128.115 129.385 129.2 128.881 130.148 128.2 C 130.603 127.874 131.019 127.503 131.388 127.095 L 131.59 127.214 L 131.349 129.149 C 130.439 129.833 129.417 130.38 128.32 130.768 C 127.126 131.216 125.849 131.445 124.559 131.443 C 123.192 131.459 121.834 131.238 120.557 130.792 C 119.378 130.372 118.311 129.725 117.43 128.893 C 116.54 128.049 115.849 127.046 115.4 125.948 C 114.917 124.774 114.676 123.528 114.689 122.274 C 114.679 119.001 115.467 116.442 117.052 114.598 Z M 121.524 113.768 C 120.836 114.215 120.256 114.786 119.82 115.447 C 119.363 116.136 119.021 116.883 118.801 117.663 C 118.583 118.406 118.44 119.166 118.377 119.933 L 120.988 120.01 C 121.898 120.038 122.786 120.052 123.652 120.052 C 124.518 120.052 125.425 120.038 126.374 120.01 L 129.057 119.933 C 129.054 119.179 128.993 118.427 128.875 117.681 C 128.76 116.911 128.514 116.163 128.143 115.465 C 127.791 114.796 127.27 114.215 126.622 113.768 C 125.872 113.294 124.973 113.059 124.063 113.099 C 123.16 113.072 122.272 113.306 121.524 113.768 Z" style="fill: rgb(123, 106, 93);"/>
  <path class="b" d="M 137.694 118.786 C 137.694 117.989 137.681 117.193 137.655 116.396 C 137.629 115.6 137.603 114.849 137.577 114.144 C 137.538 113.432 137.476 112.799 137.394 112.245 C 138.595 112.509 139.848 112.509 141.05 112.245 C 140.915 113.38 140.828 114.598 140.789 115.901 C 140.749 117.203 140.73 118.448 140.73 119.634 L 140.73 123.755 C 140.73 125.285 140.756 126.8 140.808 128.301 C 140.86 129.803 140.887 131.278 140.887 132.727 C 140.892 133.751 140.83 134.774 140.704 135.792 C 140.563 136.773 140.182 137.713 139.587 138.539 C 138.971 139.401 138.144 140.119 137.172 140.636 C 136.115 141.2 134.921 141.512 133.699 141.544 L 133.536 140.2 C 133.589 140.236 133.653 140.257 133.718 140.26 C 133.833 140.268 133.949 140.268 134.064 140.26 C 134.768 140.288 135.452 140.046 135.951 139.591 C 136.457 139.093 136.838 138.499 137.067 137.853 C 137.351 137.08 137.53 136.277 137.596 135.463 C 137.679 134.579 137.72 133.703 137.72 132.835 L 137.72 121.199 C 137.716 120.407 137.707 119.602 137.694 118.786 Z M 137.753 103.924 C 138.532 103.124 139.899 103.124 140.678 103.924 C 141.487 104.727 141.487 105.965 140.678 106.767 C 139.899 107.568 138.532 107.568 137.753 106.767 C 136.943 105.965 136.943 104.727 137.753 103.924 Z" style="fill: rgb(123, 106, 93);"/>
  <path class="b" d="M 148.668 114.598 C 150.252 112.755 152.561 111.833 155.595 111.833 C 156.869 111.804 158.136 112.026 159.309 112.484 C 160.303 112.89 161.193 113.482 161.921 114.222 C 162.634 114.962 163.168 115.831 163.487 116.773 C 163.832 117.784 164.004 118.838 163.997 119.897 C 163.997 120.16 163.997 120.416 163.997 120.667 C 163.997 120.918 163.977 121.175 163.938 121.438 L 159.59 121.36 C 158.154 121.336 156.705 121.323 155.242 121.318 C 154.35 121.318 153.462 121.333 152.579 121.36 L 149.915 121.438 C 149.883 121.636 149.87 121.836 149.876 122.035 L 149.876 122.561 C 149.868 123.539 150.027 124.512 150.346 125.446 C 150.626 126.292 151.088 127.077 151.704 127.758 C 152.306 128.409 153.054 128.934 153.897 129.299 C 154.837 129.704 155.867 129.909 156.907 129.896 C 157.47 129.894 158.03 129.822 158.572 129.681 C 159.732 129.385 160.817 128.881 161.764 128.2 C 162.22 127.874 162.635 127.503 163.004 127.095 L 163.207 127.214 L 162.965 129.149 C 162.056 129.833 161.033 130.38 159.936 130.768 C 158.743 131.216 157.465 131.445 156.176 131.443 C 154.809 131.459 153.451 131.238 152.174 130.792 C 150.994 130.372 149.928 129.725 149.047 128.893 C 148.156 128.049 147.465 127.047 147.017 125.948 C 146.533 124.774 146.292 123.528 146.305 122.274 C 146.296 119.001 147.084 116.442 148.668 114.598 Z M 153.14 113.768 C 152.452 114.215 151.872 114.786 151.436 115.447 C 150.98 116.136 150.637 116.883 150.418 117.663 C 150.199 118.406 150.057 119.166 149.993 119.933 L 152.605 120.01 C 153.514 120.038 154.402 120.052 155.268 120.052 C 156.134 120.052 157.041 120.038 157.991 120.01 L 160.674 119.933 C 160.67 119.179 160.609 118.427 160.491 117.681 C 160.377 116.911 160.13 116.163 159.76 115.465 C 159.407 114.796 158.886 114.215 158.239 113.768 C 157.489 113.294 156.59 113.059 155.68 113.099 C 154.781 113.075 153.897 113.308 153.153 113.768 L 153.14 113.768 Z" style="fill: rgb(123, 106, 93);"/>
  <path class="b" d="M 180.343 115.393 C 179.617 114.402 178.382 113.827 177.079 113.87 C 175.181 113.87 173.793 114.437 172.914 115.572 C 172.035 116.707 171.599 118.3 171.609 120.351 L 171.609 123.755 C 171.609 124.95 171.628 126.195 171.667 127.489 C 171.706 128.783 171.793 129.962 171.928 131.025 C 171.306 130.974 170.697 130.947 170.101 130.947 C 169.504 130.947 168.895 130.974 168.273 131.025 C 168.407 129.974 168.495 128.795 168.534 127.489 C 168.573 126.183 168.592 124.938 168.592 123.755 L 168.592 119.646 C 168.592 118.451 168.573 117.207 168.534 115.913 C 168.495 114.619 168.407 113.4 168.273 112.257 C 168.874 112.373 169.486 112.439 170.101 112.454 C 170.339 112.452 170.577 112.432 170.812 112.394 L 171.726 112.257 C 171.643 113.312 171.602 114.365 171.602 115.417 L 171.68 115.417 C 172.359 114.362 173.292 113.463 174.409 112.788 C 175.548 112.151 176.866 111.829 178.202 111.863 C 178.983 111.866 179.759 111.973 180.507 112.179 C 181.287 112.392 182.006 112.764 182.609 113.266 C 183.284 113.851 183.807 114.567 184.136 115.363 C 184.568 116.445 184.77 117.593 184.73 118.744 C 184.73 119.879 184.704 121.046 184.652 122.244 C 184.6 123.443 184.574 124.714 184.574 126.055 L 184.574 128.624 C 184.574 129.046 184.574 129.46 184.574 129.866 C 184.574 130.272 184.593 130.671 184.632 131.061 C 184.06 131.008 183.484 130.981 182.909 130.983 C 182.346 130.982 181.784 131.008 181.225 131.061 C 181.277 129.691 181.338 128.281 181.407 126.832 C 181.477 125.383 181.512 123.893 181.512 122.364 L 181.512 119.974 C 181.516 117.943 181.127 116.417 180.343 115.393 Z" style="fill: rgb(123, 106, 93);"/>
  <path class="b" d="M 205.862 106.929 C 205.779 107.932 205.719 108.914 205.68 109.873 C 205.64 110.833 205.592 111.801 205.536 112.777 L 207.201 112.777 C 208.014 112.777 208.885 112.743 209.812 112.675 C 209.778 112.818 209.765 112.965 209.773 113.111 L 209.773 113.941 C 209.766 114.074 209.779 114.207 209.812 114.336 C 209.459 114.308 209.094 114.288 208.715 114.276 C 208.337 114.264 207.929 114.264 207.494 114.276 L 205.536 114.276 C 205.51 114.383 205.475 114.806 205.432 115.542 C 205.388 116.279 205.353 117.155 205.327 118.17 C 205.301 119.186 205.281 120.247 205.268 121.354 C 205.255 122.462 205.255 123.457 205.268 124.341 C 205.268 125.078 205.288 125.803 205.327 126.515 C 205.354 127.168 205.484 127.814 205.712 128.433 C 205.909 128.934 206.244 129.38 206.685 129.729 C 207.219 130.101 207.882 130.283 208.552 130.242 C 208.845 130.237 209.138 130.211 209.427 130.165 C 209.749 130.122 210.068 130.056 210.38 129.968 L 210.38 130.923 C 209.918 131.004 209.411 131.103 208.859 131.222 C 208.333 131.338 207.793 131.398 207.253 131.401 C 205.546 131.401 204.286 130.993 203.473 130.177 C 202.659 129.361 202.252 128.166 202.252 126.593 C 202.252 125.88 202.265 125.11 202.291 124.281 C 202.318 123.453 202.352 122.543 202.396 121.551 C 202.435 120.564 202.47 119.471 202.5 118.272 C 202.53 117.074 202.543 115.737 202.539 114.264 L 201.234 114.264 C 201.018 114.264 200.79 114.264 200.542 114.264 L 199.772 114.324 C 199.798 114.165 199.817 114.013 199.83 113.87 C 199.83 113.726 199.83 113.571 199.83 113.416 C 199.83 113.26 199.83 113.153 199.83 113.021 C 199.83 112.89 199.798 112.759 199.772 112.627 C 200.99 112.707 201.884 112.747 202.455 112.747 C 202.429 112.221 202.409 111.562 202.396 110.769 C 202.383 109.977 202.348 109.161 202.291 108.32 L 205.667 106.935 L 205.862 106.929 Z" style="fill: rgb(123, 106, 93);"/>
  <path class="b" d="M 214.558 103.93 C 215.337 103.13 216.704 103.13 217.483 103.93 C 218.292 104.733 218.292 105.971 217.483 106.773 C 216.704 107.574 215.337 107.574 214.558 106.773 C 213.748 105.971 213.748 104.733 214.558 103.93 Z M 214.454 115.877 C 214.414 114.571 214.327 113.352 214.192 112.221 C 215.394 112.485 216.646 112.485 217.848 112.221 C 217.713 113.356 217.626 114.574 217.587 115.877 C 217.548 117.179 217.528 118.424 217.528 119.61 L 217.528 123.755 C 217.528 124.95 217.548 126.195 217.587 127.489 C 217.626 128.783 217.713 129.962 217.848 131.025 C 217.225 130.974 216.616 130.947 216.02 130.947 C 215.424 130.947 214.815 130.974 214.192 131.025 C 214.327 129.974 214.414 128.795 214.454 127.489 C 214.493 126.183 214.514 124.938 214.519 123.755 L 214.519 119.646 C 214.519 118.439 214.497 117.185 214.454 115.883 L 214.454 115.877 Z" style="fill: rgb(123, 106, 93);"/>
  <path class="b" d="M 225.787 109.658 C 225.787 108.604 225.767 107.562 225.728 106.534 C 225.689 105.507 225.653 104.526 225.623 103.59 C 225.584 102.654 225.536 101.857 225.48 101.2 C 226.681 101.464 227.934 101.464 229.136 101.2 C 229.079 101.857 229.031 102.654 228.992 103.59 C 228.953 104.526 228.918 105.507 228.888 106.534 C 228.861 107.562 228.842 108.604 228.829 109.658 C 228.816 110.714 228.816 111.689 228.829 112.585 L 228.829 119.753 C 228.829 120.649 228.829 121.625 228.829 122.68 C 228.829 123.736 228.848 124.777 228.888 125.804 C 228.914 126.832 228.948 127.808 228.992 128.731 C 229.035 129.655 229.083 130.42 229.136 131.025 C 228.53 130.958 227.923 130.923 227.314 130.923 C 226.705 130.923 226.095 130.95 225.486 131.001 C 225.539 130.396 225.586 129.631 225.63 128.707 C 225.673 127.784 225.708 126.808 225.734 125.78 C 225.761 124.753 225.78 123.712 225.793 122.656 C 225.806 121.601 225.806 120.625 225.793 119.729 L 225.793 112.561 C 225.806 111.662 225.804 110.694 225.787 109.658 Z" style="fill: rgb(123, 106, 93);"/>
  <path class="b" d="M 248.055 114.598 C 249.634 112.739 251.947 111.809 254.994 111.809 C 256.268 111.78 257.536 112.002 258.709 112.46 C 259.702 112.866 260.592 113.458 261.32 114.198 C 262.034 114.938 262.568 115.807 262.887 116.749 C 263.232 117.76 263.404 118.814 263.396 119.873 C 263.396 120.136 263.396 120.393 263.396 120.643 C 263.396 120.894 263.363 121.151 263.337 121.414 L 258.989 121.336 C 257.553 121.312 256.104 121.299 254.642 121.294 C 253.749 121.294 252.861 121.309 251.978 121.336 L 249.315 121.414 C 249.283 121.612 249.269 121.812 249.275 122.011 L 249.275 122.561 C 249.268 123.539 249.426 124.512 249.745 125.446 C 250.025 126.292 250.487 127.077 251.103 127.758 C 251.706 128.409 252.453 128.934 253.297 129.299 C 254.237 129.704 255.266 129.909 256.306 129.896 C 256.869 129.894 257.429 129.822 257.971 129.681 C 259.131 129.385 260.216 128.881 261.163 128.2 C 261.619 127.873 262.035 127.503 262.404 127.095 L 262.606 127.214 L 262.365 129.149 C 261.455 129.833 260.433 130.38 259.335 130.768 C 258.142 131.215 256.864 131.444 255.575 131.443 C 254.208 131.459 252.85 131.239 251.573 130.792 C 250.394 130.372 249.327 129.725 248.446 128.893 C 247.556 128.049 246.865 127.046 246.416 125.948 C 245.933 124.774 245.691 123.528 245.704 122.274 C 245.687 119.001 246.47 116.442 248.055 114.598 Z M 252.526 113.768 C 251.838 114.215 251.259 114.786 250.823 115.447 C 250.366 116.136 250.024 116.883 249.804 117.663 C 249.585 118.406 249.443 119.166 249.38 119.933 L 251.991 120.01 C 252.896 120.038 253.784 120.052 254.655 120.052 C 255.525 120.052 256.432 120.038 257.377 120.01 L 260.06 119.933 C 260.057 119.179 259.995 118.427 259.877 117.681 C 259.762 116.911 259.516 116.163 259.146 115.465 C 258.794 114.796 258.273 114.215 257.625 113.768 C 256.875 113.294 255.976 113.059 255.066 113.099 C 254.163 113.072 253.275 113.306 252.526 113.768 Z" style="fill: rgb(123, 106, 93);"/>
  <path class="b" d="M 271.361 106.929 C 271.278 107.932 271.217 108.914 271.178 109.873 C 271.139 110.833 271.09 111.801 271.034 112.777 L 272.699 112.777 C 273.512 112.777 274.383 112.743 275.31 112.675 C 275.276 112.818 275.263 112.965 275.271 113.111 L 275.271 113.941 C 275.264 114.074 275.277 114.207 275.31 114.336 C 274.958 114.308 274.592 114.288 274.213 114.276 C 273.835 114.264 273.427 114.264 272.993 114.276 L 271.034 114.276 C 271.008 114.383 270.973 114.806 270.93 115.542 C 270.886 116.279 270.851 117.155 270.825 118.17 C 270.799 119.186 270.779 120.247 270.766 121.354 C 270.753 122.462 270.753 123.457 270.766 124.341 C 270.766 125.078 270.786 125.803 270.825 126.515 C 270.853 127.168 270.983 127.814 271.21 128.433 C 271.396 128.958 271.733 129.428 272.183 129.795 C 272.717 130.167 273.38 130.349 274.05 130.308 C 274.343 130.303 274.636 130.277 274.925 130.231 C 275.247 130.187 275.566 130.121 275.878 130.033 L 275.878 130.923 C 275.417 131.004 274.909 131.103 274.357 131.222 C 273.831 131.338 273.292 131.398 272.751 131.401 C 271.045 131.401 269.785 130.993 268.971 130.177 C 268.157 129.361 267.75 128.166 267.75 126.593 C 267.75 125.88 267.763 125.11 267.79 124.281 C 267.816 123.453 267.85 122.543 267.894 121.551 C 267.933 120.564 267.968 119.471 267.998 118.272 C 268.028 117.074 268.042 115.737 268.038 114.264 L 266.732 114.264 C 266.517 114.264 266.288 114.264 266.04 114.264 L 265.27 114.324 C 265.296 114.165 265.315 114.013 265.328 113.87 C 265.328 113.726 265.328 113.571 265.328 113.416 C 265.328 113.26 265.328 113.153 265.328 113.021 C 265.328 112.89 265.296 112.759 265.27 112.627 C 266.488 112.707 267.382 112.747 267.953 112.747 C 267.927 112.221 267.907 111.562 267.894 110.769 C 267.881 109.977 267.846 109.161 267.79 108.32 L 271.165 106.935 L 271.361 106.929 Z" style="fill: rgb(123, 106, 93);"/>
  <path class="b" d="M 303.134 113.493 C 303.813 113.969 304.362 114.583 304.74 115.285 C 305.151 116.095 305.352 116.98 305.327 117.872 C 305.34 118.788 305.147 119.697 304.759 120.542 C 304.391 121.33 303.843 122.036 303.153 122.615 C 302.433 123.211 301.589 123.668 300.672 123.959 C 299.633 124.286 298.54 124.445 297.441 124.43 C 297.141 124.43 296.849 124.43 296.566 124.43 C 296.283 124.43 295.966 124.43 295.613 124.43 C 295.272 124.438 294.958 124.602 294.777 124.867 C 294.548 125.153 294.427 125.498 294.431 125.852 C 294.406 126.433 294.685 126.99 295.182 127.351 C 295.883 127.78 296.716 127.989 297.558 127.949 L 300.568 127.991 C 302.844 128.019 304.518 128.433 305.588 129.233 C 306.659 130.033 307.194 131.318 307.194 133.086 C 307.324 135.691 305.98 138.173 303.636 139.656 C 302.587 140.323 301.411 140.805 300.17 141.078 C 298.962 141.361 297.721 141.507 296.475 141.514 C 293.929 141.514 291.944 141.033 290.521 140.069 C 289.154 139.208 288.352 137.775 288.386 136.258 C 288.329 135.151 288.711 134.062 289.463 133.193 C 290.251 132.371 291.249 131.739 292.368 131.354 L 292.368 131.276 C 291.707 131.066 291.122 130.689 290.684 130.189 C 290.24 129.663 290.01 129.013 290.031 128.349 C 290.055 127.424 290.42 126.533 291.069 125.822 C 291.757 125.007 292.722 124.423 293.811 124.162 L 293.811 124.084 C 290.595 123.512 288.353 120.832 288.589 117.842 C 288.578 116.912 288.801 115.993 289.241 115.154 C 289.654 114.373 290.26 113.689 291.011 113.159 C 291.826 112.594 292.749 112.173 293.733 111.916 C 294.867 111.617 296.044 111.47 297.226 111.48 C 297.713 111.48 298.213 111.501 298.727 111.54 L 300.229 111.636 C 300.581 111.664 300.94 111.683 301.306 111.695 C 301.671 111.707 302.071 111.707 302.507 111.695 C 303.186 111.695 303.891 111.695 304.622 111.695 C 305.353 111.695 306.084 111.695 306.816 111.695 C 306.789 111.855 306.77 112.012 306.757 112.167 C 306.757 112.323 306.757 112.484 306.757 112.639 C 306.757 112.794 306.757 112.956 306.757 113.111 C 306.757 113.266 306.789 113.428 306.816 113.583 L 303.238 113.428 L 303.134 113.493 Z M 302.083 133.313 C 301.829 132.84 301.426 132.447 300.927 132.184 C 300.354 131.9 299.726 131.72 299.08 131.652 C 298.257 131.555 297.428 131.509 296.599 131.515 C 295.604 131.45 294.606 131.585 293.674 131.909 C 293.222 132.199 292.863 132.595 292.636 133.056 C 292.244 133.766 292.055 134.555 292.088 135.35 C 292.069 136.035 292.214 136.716 292.512 137.345 C 292.776 137.887 293.171 138.367 293.668 138.749 C 294.167 139.124 294.738 139.411 295.352 139.597 C 296.013 139.799 296.705 139.9 297.402 139.895 C 298.128 139.906 298.848 139.778 299.517 139.519 C 300.728 139.039 301.671 138.126 302.128 136.992 C 302.359 136.419 302.476 135.812 302.474 135.2 C 302.507 134.552 302.373 133.905 302.083 133.313 Z M 294.32 118.314 C 294.304 119.051 294.385 119.787 294.562 120.506 C 294.694 121.015 294.914 121.501 295.215 121.946 C 295.424 122.27 295.717 122.541 296.07 122.734 C 296.36 122.887 296.688 122.969 297.023 122.973 C 297.867 122.983 298.638 122.532 298.982 121.826 C 299.416 121.062 299.634 119.771 299.634 117.955 C 299.634 116.139 299.393 114.887 298.91 114.198 C 298.564 113.556 297.863 113.139 297.082 113.111 C 295.241 113.103 294.32 114.837 294.32 118.314 Z" style="fill: rgb(123, 106, 93);"/>
  <path class="b" d="M 309.655 117.406 C 310.146 116.184 310.899 115.063 311.868 114.109 C 312.761 113.243 313.85 112.568 315.061 112.131 C 316.244 111.701 317.508 111.48 318.782 111.48 C 321.95 111.48 324.403 112.351 326.139 114.091 C 327.876 115.831 328.746 118.188 328.751 121.163 C 328.773 122.64 328.526 124.11 328.019 125.512 C 327.58 126.724 326.883 127.844 325.969 128.809 C 325.11 129.705 324.032 130.403 322.823 130.846 C 321.541 131.303 320.176 131.53 318.801 131.515 C 317.584 131.516 316.372 131.357 315.204 131.043 C 314.026 130.727 312.937 130.181 312.012 129.442 C 311.015 128.63 310.229 127.624 309.714 126.497 C 309.088 125.079 308.79 123.558 308.839 122.029 C 308.798 120.455 309.075 118.888 309.655 117.406 Z M 321.824 115.172 C 321.403 114.007 320.2 113.229 318.86 113.254 C 317.615 113.254 316.634 113.965 315.916 115.387 C 315.198 116.809 314.839 119.035 314.839 122.065 C 314.833 123.095 314.901 124.125 315.041 125.147 C 315.142 125.992 315.362 126.821 315.694 127.614 C 315.952 128.243 316.37 128.807 316.915 129.257 C 317.441 129.662 318.113 129.875 318.801 129.854 C 321.413 129.854 322.718 126.758 322.718 120.566 C 322.807 118.733 322.505 116.9 321.831 115.172 L 321.824 115.172 Z" style="fill: rgb(123, 106, 93);"/>
  <path class="b" d="M 350.268 124.556 C 350.32 126.718 350.4 128.865 350.509 130.995 C 350.066 130.937 349.618 130.912 349.171 130.917 L 345.907 130.917 C 345.52 130.909 345.133 130.935 344.751 130.995 C 344.798 130.827 344.824 130.655 344.83 130.481 C 344.856 130.191 344.89 129.863 344.934 129.496 C 344.977 129.13 345.012 128.787 345.039 128.468 C 345.065 128.154 345.078 127.955 345.078 127.871 L 344.999 127.793 C 344.574 128.865 343.843 129.814 342.884 130.541 C 341.814 131.238 340.52 131.583 339.209 131.521 C 337.978 131.554 336.759 131.288 335.677 130.75 C 334.693 130.228 333.868 129.486 333.281 128.594 C 332.623 127.595 332.155 126.5 331.897 125.356 C 331.592 124.045 331.443 122.707 331.453 121.366 C 331.438 120.036 331.643 118.71 332.06 117.436 C 332.422 116.318 332.985 115.262 333.725 114.312 C 334.387 113.465 335.24 112.759 336.225 112.239 C 337.158 111.745 338.216 111.486 339.294 111.486 C 340.446 111.471 341.579 111.759 342.558 112.317 C 343.468 112.82 344.208 113.546 344.693 114.413 L 344.777 114.413 C 344.777 112.024 344.751 109.792 344.699 107.717 C 344.647 105.643 344.557 103.47 344.431 101.2 C 344.784 101.252 345.23 101.298 345.77 101.338 C 346.309 101.378 346.877 101.397 347.474 101.397 C 348.07 101.397 348.638 101.378 349.177 101.338 C 349.717 101.298 350.163 101.252 350.516 101.2 C 350.407 103.415 350.326 105.605 350.274 107.771 C 350.222 109.937 350.196 112.309 350.196 114.885 L 350.196 117.454 C 350.191 120.031 350.215 122.398 350.268 124.556 Z M 337.714 125.344 C 337.85 126.12 338.11 126.872 338.484 127.578 C 338.736 128.067 339.121 128.488 339.6 128.803 C 339.986 129.042 340.44 129.173 340.906 129.179 C 342.016 129.179 342.93 128.566 343.648 127.339 C 344.366 126.113 344.725 124.078 344.725 121.235 C 344.725 118.786 344.386 116.994 343.707 115.859 C 343.028 114.724 342.157 114.165 341.095 114.18 C 340.632 114.187 340.18 114.312 339.79 114.539 C 339.283 114.85 338.875 115.279 338.608 115.781 C 338.195 116.536 337.901 117.341 337.733 118.17 C 337.293 120.542 337.273 122.962 337.675 125.338 L 337.714 125.344 Z" style="fill: rgb(123, 106, 93);"/>
  <path class="b" d="M 365.387 113.254 C 365.386 113.587 365.428 113.917 365.511 114.24 L 361.934 114.162 C 361.877 114.768 361.829 115.467 361.79 116.259 C 361.751 117.052 361.725 117.848 361.712 118.648 C 361.712 119.465 361.699 120.261 361.673 121.038 C 361.646 121.814 361.646 122.459 361.673 122.973 C 361.673 124.343 361.707 125.45 361.777 126.294 C 361.81 126.949 361.926 127.599 362.123 128.229 C 362.224 128.6 362.47 128.922 362.815 129.137 C 363.164 129.308 363.556 129.39 363.951 129.376 C 364.332 129.39 364.714 129.358 365.087 129.281 C 365.343 129.209 365.588 129.109 365.818 128.982 L 365.818 130.601 C 365.166 130.873 364.486 131.085 363.788 131.234 C 363.004 131.414 362.199 131.506 361.392 131.509 C 357.919 131.517 356.182 129.516 356.182 125.506 C 356.182 124.741 356.195 123.879 356.221 122.919 C 356.248 121.96 356.282 120.964 356.326 119.933 C 356.365 118.917 356.4 117.922 356.43 116.946 C 356.46 115.97 356.473 115.055 356.47 114.198 L 353.623 114.24 C 353.705 113.917 353.747 113.587 353.747 113.254 C 353.741 112.895 353.7 112.538 353.623 112.185 L 356.47 112.305 C 356.47 111.489 356.456 110.724 356.43 110.011 C 356.404 109.298 356.362 108.442 356.306 107.442 C 357.255 107.072 358.188 106.674 359.107 106.248 C 360.025 105.822 360.945 105.394 361.868 104.963 L 362.273 105.238 C 362.221 105.661 362.173 106.155 362.13 106.72 C 362.086 107.285 362.045 107.883 362.006 108.512 C 361.966 109.133 361.94 109.766 361.927 110.411 C 361.914 111.056 361.914 111.67 361.927 112.251 L 365.505 112.173 C 365.428 112.53 365.389 112.892 365.387 113.254 Z" style="fill: rgb(123, 106, 93);"/>
  <path class="b" d="M 380.337 107.759 C 380.28 105.601 380.2 103.41 380.095 101.188 C 380.448 101.24 380.894 101.286 381.434 101.326 C 381.973 101.366 382.541 101.385 383.138 101.385 C 383.734 101.385 384.302 101.366 384.841 101.326 C 385.381 101.286 385.827 101.24 386.18 101.188 C 386.071 103.403 385.99 105.593 385.938 107.759 C 385.886 109.925 385.86 112.297 385.86 114.873 L 385.86 117.442 C 385.86 120.022 385.886 122.394 385.938 124.556 C 385.99 126.718 386.071 128.865 386.18 130.995 C 385.736 130.937 385.289 130.912 384.841 130.917 L 381.427 130.917 C 380.979 130.912 380.531 130.937 380.089 130.995 C 380.197 128.861 380.278 126.715 380.33 124.556 C 380.383 122.398 380.409 120.026 380.409 117.442 L 380.409 114.873 C 380.417 112.293 380.393 109.921 380.337 107.759 Z" style="fill: rgb(123, 106, 93);"/>
  <path class="b" d="M 392.166 102.305 C 393.395 101.08 395.507 101.08 396.736 102.305 C 397.981 103.561 397.981 105.477 396.736 106.732 C 395.507 107.957 393.395 107.957 392.166 106.732 C 390.92 105.477 390.92 103.561 392.166 102.305 Z M 391.657 116.235 C 391.618 114.825 391.53 113.41 391.396 111.988 C 391.774 112.04 392.22 112.086 392.734 112.125 C 393.247 112.165 393.815 112.185 394.438 112.185 C 395.458 112.203 396.479 112.137 397.487 111.988 C 397.352 113.41 397.262 114.825 397.219 116.235 C 397.175 117.645 397.156 119.154 397.16 120.763 L 397.16 122.346 C 397.16 123.939 397.18 125.454 397.219 126.891 C 397.258 128.329 397.347 129.699 397.487 131.001 C 397.054 130.944 396.618 130.918 396.181 130.923 L 392.741 130.923 C 392.293 130.919 391.846 130.945 391.402 131.001 C 391.537 129.683 391.624 128.313 391.663 126.891 C 391.703 125.47 391.722 123.955 391.722 122.346 L 391.722 120.769 C 391.718 119.176 391.696 117.665 391.657 116.235 Z" style="fill: rgb(123, 106, 93);"/>
  <path class="b" d="M 413.311 118.905 C 414.112 116.611 414.904 114.306 415.687 111.988 L 416.543 112.125 C 417.081 112.204 417.63 112.204 418.168 112.125 L 419.063 111.988 C 418.627 113.015 418.098 114.21 417.476 115.572 C 416.853 116.934 416.201 118.424 415.518 120.04 C 414.826 121.661 414.121 123.399 413.403 125.255 C 412.684 127.111 412.014 129.028 411.392 131.007 C 411.029 130.956 410.662 130.93 410.295 130.929 L 408.102 130.929 C 407.734 130.93 407.368 130.956 407.005 131.007 C 406.46 129.506 405.858 127.845 405.197 126.025 C 404.535 124.206 403.882 122.414 403.238 120.649 L 401.41 115.727 C 400.84 114.202 400.366 112.952 399.987 111.976 L 401.632 112.113 C 402.158 112.154 402.681 112.173 403.199 112.173 C 403.717 112.173 404.224 112.154 404.72 112.113 C 405.22 112.074 405.727 112.028 406.241 111.976 C 406.972 114.294 407.71 116.599 408.454 118.893 C 409.198 121.187 409.964 123.493 410.752 125.81 L 410.837 125.81 C 411.69 123.501 412.515 121.199 413.311 118.905 Z" style="fill: rgb(123, 106, 93);"/>
  <path class="a" d="M 342.917 6.678 L 352.781 6.678 L 352.781 37.65 L 353.01 37.65 C 354.685 34.969 357.139 32.763 360.099 31.277 C 363.158 29.631 366.636 28.747 370.185 28.714 C 377.471 28.714 389.117 32.818 389.117 49.943 L 389.117 79.481 L 379.234 79.481 L 379.234 50.965 C 379.234 42.966 375.969 36.193 366.68 36.193 C 360.289 36.193 355.249 40.296 353.453 45.218 C 352.923 46.6 352.701 48.064 352.801 49.525 L 352.801 79.475 L 342.917 79.475 L 342.917 6.678 Z" style="fill: rgb(0, 99, 115);"/>
  <path class="a" d="M 450.529 65.94 C 450.529 71.071 450.64 75.581 450.979 79.481 L 442.231 79.481 L 441.703 71.375 L 441.481 71.375 C 437.759 77.186 430.906 80.712 423.547 80.604 C 415.028 80.604 404.831 76.297 404.831 58.861 L 404.831 29.843 L 414.695 29.843 L 414.695 57.32 C 414.695 66.752 417.835 73.114 426.799 73.114 C 433.412 73.114 438.008 68.932 439.803 64.906 C 440.4 63.429 440.702 61.865 440.697 60.289 L 440.697 29.825 L 450.561 29.825 L 450.529 65.94 Z" style="fill: rgb(0, 99, 115);"/>
  <path class="a" d="M 466.941 70.247 C 470.849 72.481 475.338 73.718 479.945 73.83 C 487.126 73.83 490.482 70.551 490.482 66.447 C 490.482 62.141 487.681 59.781 480.389 57.32 C 470.642 54.142 466.027 49.22 466.027 43.265 C 466.027 35.267 473.091 28.702 484.743 28.702 C 489.41 28.653 494.011 29.709 498.1 31.766 L 495.633 38.337 C 492.297 36.455 488.453 35.46 484.535 35.464 C 478.705 35.464 475.454 38.54 475.454 42.232 C 475.454 46.335 478.718 48.205 485.762 50.642 C 495.182 53.921 500 58.228 500 65.617 C 500 74.332 492.604 80.485 479.71 80.485 C 473.769 80.485 468.279 79.153 464.467 77.098 L 466.941 70.247 Z" style="fill: rgb(0, 99, 115);"/>
</svg>