<?xml version="1.0" encoding="utf-8"?>
<svg xmlns="http://www.w3.org/2000/svg" viewBox="0 0 1280 400">
  <title>Sorana EPS</title>
  <path class="c" d="M 300.312 221.01 C 299.29 218.021 295.33 214.847 292.445 213.419 C 193.393 297.684 25.494 360.359 -86.406 385.738 L -81.751 400 C 46.363 366.192 221.868 300.213 300.312 221.01" style="fill: rgb(169, 154, 141); fill-rule: evenodd;"/>
  <path class="c" d="M 228.907 239.952 C 237.257 231.17 246.237 227.984 256.776 224.654 C 268.575 220.918 274.999 207.954 287.359 204.753 C 276.767 174.839 309.645 182.076 322.033 199.878 C 338.446 223.579 326.281 232.258 315.479 230.67 C 301.989 253.204 299.197 271.938 281.041 283.107 C 289.837 266.602 287.124 261.268 296.903 241.867 C 290.742 251.252 282.877 264.911 266.595 269.473 C 276.165 257.676 281.461 247.555 282.982 238.692 C 275.116 241.8 257.418 240.699 248.44 245.444 C 254.848 233.805 273.49 232.008 278.892 226.174 C 254.691 237.971 254.731 232.14 228.907 239.913" style="fill: rgb(169, 154, 141); fill-rule: evenodd;"/>
  <path class="d" d="M 318.087 134.123 C 327.579 137.046 342.915 146.997 349.693 156.093 C 349.693 156.093 349.548 156.356 349.43 156.394 C 340.977 147.992 332.036 140.469 318.324 135.669 C 327.302 140.179 340.517 151.846 345.853 161.56 C 345.853 161.56 345.669 161.81 345.551 161.834 C 337.856 151.636 329.453 142.355 314.809 135.486 C 310.092 154.965 304.494 176.32 299.799 195.866 C 300.52 199.275 300.797 205.699 299.486 209.079 C 296.732 216.225 295.434 219.909 292.657 227.052 C 291.554 229.925 289.117 229.123 289.523 225.951 C 290.336 219.489 291.344 213.748 292.144 207.139 C 292.695 202.879 295.107 199.182 297.1 195.342 C 302.134 175.547 307.417 154.271 312.437 134.503 C 298.803 133.651 286.73 135.644 276.912 139.982 C 276.833 139.982 276.807 139.695 276.794 139.653 C 284.738 134.633 301.137 132.195 310.366 132.719 C 297.126 127.07 285.459 126.481 273.569 126.952 C 273.53 126.818 273.53 126.678 273.569 126.546 C 283.492 124.67 298.855 126.899 308.427 130.413 C 300.306 124.465 290.972 120.388 281.094 118.471 C 281.098 118.348 281.134 118.232 281.199 118.129 C 288.5 118.326 298.922 122.836 306.446 127.528 C 298.017 119.825 288.334 113.619 277.816 109.174 C 277.822 109.051 277.872 108.935 277.96 108.848 C 288.054 111.47 303.249 122.285 310.876 129.94 C 304.181 120.12 295.676 111.665 285.812 105.032 C 285.812 104.941 285.971 104.823 285.983 104.811 C 292.918 108.284 301.963 116.937 307.796 124.081 C 301.718 114.458 294.107 105.893 285.263 98.728 C 285.263 98.61 285.459 98.466 285.485 98.441 C 295.736 104.602 310.247 121.434 314.693 131.002 C 322.782 125.758 345.21 119.491 357.86 120.646 C 357.904 120.764 357.904 120.894 357.86 121.014 C 346.525 121.566 335.358 123.972 324.8 128.132 C 333.726 125.836 346.075 124.2 353.638 125.51 C 353.669 125.602 353.669 125.704 353.638 125.798 C 341.75 125.333 329.88 127.139 318.664 131.12 C 329.334 129.455 347.99 129.732 357.728 133.532 C 357.736 133.653 357.705 133.772 357.637 133.874 C 344.71 130.847 331.316 130.369 318.205 132.472 C 329.702 132.472 345.039 132.052 357.389 138.068 C 357.389 138.068 357.389 138.331 357.284 138.397 C 347.435 135.199 337.146 133.568 326.791 133.559 C 337.278 135.577 350.533 140.192 357.27 145.856 C 357.244 145.989 357.179 146.117 357.087 146.223 C 347.827 140.632 337.599 136.836 326.936 135.027 C 335.418 137.374 345.445 141.359 350.953 145.619 C 350.932 145.716 350.888 145.806 350.821 145.88 C 340.727 139.958 329.609 135.982 318.049 134.161" style="fill: rgb(108, 175, 182); fill-rule: evenodd;"/>
  <path class="e" d="M 375.714 282.112 C 369.423 289.452 354.57 299.31 343.808 301.84 C 343.715 301.741 343.652 301.619 343.623 301.486 C 354.411 297.187 364.598 292.1 374.234 281.704 C 366.709 287.984 351.147 295.273 340.4 296.229 C 340.326 296.119 340.287 295.992 340.281 295.862 C 352.382 292.94 363.955 289.033 375.781 278.597 C 360.18 266.799 343.27 253.533 327.604 241.736 C 324.288 241.053 318.428 238.811 315.912 236.334 C 310.603 231.09 307.81 228.469 302.487 223.225 C 300.338 221.115 302.016 219.293 304.691 220.838 C 310.156 224.077 314.903 227.224 320.422 230.541 C 324.027 232.689 326.399 236.282 329.019 239.546 C 344.751 251.724 361.794 264.702 377.523 276.867 C 383.569 265.068 386.489 253.441 386.413 242.967 C 386.52 242.935 386.634 242.935 386.74 242.967 C 388.155 252.011 383.96 267.625 379.923 275.74 C 390.109 266.091 395.194 255.827 399.364 245.064 C 399.493 245.092 399.616 245.151 399.717 245.236 C 397.541 254.831 389.597 267.717 382.676 274.927 C 391.142 269.961 398.409 263.195 403.964 255.106 C 404.07 255.106 404.203 255.303 404.241 255.327 C 401.225 261.779 393.151 269.357 386.031 274.271 C 396.193 269.723 405.504 263.47 413.561 255.789 C 413.68 255.789 413.785 255.997 413.796 256.038 C 407.557 264.073 392.075 273.432 382.243 277.287 C 393.627 275.114 404.491 270.794 414.256 264.557 C 414.347 264.557 414.401 264.767 414.401 264.794 C 408.605 269.643 397.358 274.362 388.693 276.814 C 399.673 275.116 410.302 271.632 420.154 266.497 C 420.246 266.497 420.313 266.773 420.327 266.813 C 410.836 273.589 390.173 280.04 379.885 280.29 C 381.405 289.542 378.338 312.052 372.386 322.932 C 372.264 322.926 372.149 322.879 372.058 322.801 C 375.961 312.444 378.142 301.521 378.521 290.461 C 377.117 299.336 373.775 311.016 369.658 317.336 C 369.565 317.327 369.474 317.286 369.409 317.217 C 374.438 306.76 377.427 295.44 378.219 283.867 C 375.598 294.066 368.097 310.636 360.901 317.874 C 360.901 317.874 360.653 317.767 360.625 317.662 C 368.354 307.277 373.981 295.48 377.183 282.938 C 372.778 293.226 367.142 307.097 356.983 315.802 C 356.983 315.802 356.746 315.684 356.72 315.578 C 363.399 308.008 368.852 299.439 372.884 290.187 C 367.01 298.799 357.742 308.854 350.06 312.681 C 350.06 312.681 349.825 312.486 349.812 312.366 C 358.411 306.247 365.779 298.561 371.532 289.715 C 366.145 296.387 358.7 303.793 352.747 307.07 C 352.747 307.07 352.578 306.94 352.564 306.847 C 361.778 300.119 369.644 291.719 375.755 282.084" style="fill: rgb(123, 106, 93); fill-rule: evenodd;"/>
  <path class="f" d="M 309.658 308.407 C 301.518 308.892 286.862 305.681 279.023 300.647 C 279.03 300.533 279.072 300.423 279.141 300.332 C 288.067 304.345 297.114 307.543 309.042 307.28 C 300.836 306.388 287.307 301.25 280.439 295.311 C 280.459 295.196 280.513 295.091 280.596 295.01 C 289.458 300.62 298.594 305.34 311.834 306.388 C 309.841 290.042 307.979 272.03 305.948 255.642 C 304.414 253.232 302.342 248.369 302.371 245.392 C 302.371 239.112 302.371 235.901 302.371 229.661 C 302.371 227.131 304.494 227.04 305.097 229.661 C 306.408 234.905 307.206 239.585 308.466 244.906 C 309.277 248.341 308.466 251.882 308.06 255.394 C 309.893 272.056 311.992 289.938 313.84 306.585 C 324.563 303.295 333.268 298.287 339.56 292.166 C 339.637 292.166 339.732 292.348 339.743 292.388 C 335.103 298.537 323.188 305.143 315.938 307.411 C 327.735 307.934 336.911 304.999 345.905 301.223 C 345.97 301.315 346.007 301.425 346.009 301.538 C 338.918 305.839 326.466 308.577 318.087 308.631 C 326.047 310.863 334.399 311.31 342.548 309.941 C 342.577 310.035 342.577 310.135 342.548 310.23 C 336.887 312.183 327.564 311.737 320.422 310.23 C 329.122 313.719 338.36 315.693 347.726 316.064 C 347.76 316.161 347.76 316.267 347.726 316.365 C 339.18 317.217 324.405 313.337 316.265 309.653 C 324.249 315.275 333.232 319.323 342.732 321.582 C 342.732 321.648 342.732 321.779 342.667 321.805 C 336.335 321.124 326.936 317.086 320.381 313.284 C 327.831 318.927 336.158 323.313 345.027 326.262 C 345.027 326.354 344.948 326.525 344.934 326.55 C 335.274 324.78 319.267 316.064 313.093 309.968 C 308.386 316.313 292.943 327.625 282.942 330.405 C 282.873 330.326 282.826 330.23 282.811 330.129 C 291.371 326.433 299.267 321.358 306.185 315.106 C 299.984 319.459 290.965 324.284 284.738 325.489 C 284.738 325.489 284.633 325.333 284.646 325.266 C 293.921 322.185 302.525 317.366 309.998 311.068 C 302.278 315.434 287.859 320.6 279.272 320.493 C 279.272 320.493 279.193 320.298 279.272 320.206 C 290.084 318.802 300.516 315.301 309.987 309.901 C 301.163 313.257 289.482 317.978 278.264 316.916 C 278.231 316.822 278.231 316.72 278.264 316.628 C 286.779 316.24 295.183 314.523 303.168 311.54 C 294.517 313.009 283.008 313.297 276.192 310.897 C 276.161 310.79 276.161 310.676 276.192 310.57 C 284.93 312.189 293.894 312.151 302.619 310.453 C 295.422 311.095 286.572 310.926 281.108 309.247 C 281.084 309.169 281.084 309.086 281.108 309.011 C 290.578 310.646 300.27 310.49 309.685 308.551" style="fill: rgb(182, 183, 78); fill-rule: evenodd;"/>
  <path class="d" d="M 257.339 283.566 C 251.048 279.292 242.015 268.583 239.079 260.402 C 239.147 260.32 239.241 260.26 239.342 260.232 C 243.667 268.28 248.518 275.792 257.523 282.373 C 251.951 277.064 244.86 265.554 243.104 257.242 C 243.187 257.176 243.287 257.131 243.392 257.111 C 246.748 266.289 250.838 274.993 260.054 283.329 C 267.919 270.102 276.741 255.695 284.553 242.417 C 284.79 239.794 286.024 234.97 287.741 232.794 C 291.358 228.179 293.128 225.768 296.746 221.154 C 298.201 219.293 299.799 220.419 298.803 222.649 C 296.772 227.21 294.741 231.196 292.642 235.848 C 291.331 238.85 288.709 241.093 286.39 243.373 C 278.264 256.772 269.664 271.179 261.547 284.561 C 271.353 288.233 280.648 289.478 288.828 288.494 C 288.851 288.585 288.851 288.68 288.828 288.769 C 281.881 290.683 269.309 288.769 262.611 286.371 C 271.052 293.463 279.52 296.519 288.303 298.811 C 288.299 298.919 288.262 299.023 288.199 299.114 C 280.503 298.274 269.728 293.214 263.489 288.494 C 268.119 294.663 274.055 299.735 280.871 303.348 C 280.84 303.434 280.786 303.512 280.712 303.572 C 275.471 301.788 268.772 296.177 264.287 291.037 C 268.749 298.568 274.462 305.281 281.185 310.883 C 281.185 310.978 281.041 311.082 281.016 311.095 C 274.212 306.874 265.468 295.586 261.587 288.272 C 264.296 296.976 268.642 305.083 274.395 312.157 C 274.395 312.157 274.236 312.275 274.225 312.288 C 269.925 308.198 265.219 299.821 262.531 293.279 C 264.84 301.684 268.506 309.654 273.386 316.876 C 273.386 316.954 273.189 317.034 273.149 317.034 C 267.015 310.23 260.131 294.643 259.004 286.646 C 251.912 288.665 234.098 288.272 225.025 284.602 C 225.025 284.602 225.025 284.392 225.104 284.326 C 233.542 286.454 242.269 287.184 250.943 286.489 C 243.89 286.188 234.464 284.627 229.169 281.98 C 229.169 281.98 229.169 281.808 229.169 281.77 C 237.786 284.78 246.899 286.115 256.016 285.702 C 247.809 284.55 234.203 280.183 227.91 275.216 C 227.929 275.12 227.979 275.037 228.053 274.979 C 236.857 280.091 246.573 283.434 256.659 284.824 C 248.215 282.295 236.877 279.135 229.129 271.978 C 229.155 271.887 229.211 271.807 229.287 271.753 C 235.795 276.296 242.975 279.794 250.563 282.124 C 243.314 278.296 234.634 271.964 230.899 266.289 C 230.952 266.193 231.027 266.115 231.122 266.064 C 236.678 272.242 243.349 277.316 250.785 281.023 C 245.096 277.417 238.633 272.253 235.54 267.914 C 235.57 267.844 235.628 267.787 235.696 267.757 C 241.774 274.352 249.036 279.752 257.103 283.671" style="fill: rgb(108, 175, 182); fill-rule: evenodd;"/>
  <path class="c" d="M 206.202 250.793 C 203.92 242.704 203.947 227.197 207.29 218.244 C 207.401 218.211 207.519 218.211 207.631 218.244 C 205.532 228.103 204.301 237.907 207.198 249.875 C 206.282 241.42 208.51 226.672 212.967 218.414 C 213.081 218.416 213.194 218.447 213.292 218.507 C 209.584 228.665 206.844 238.904 208.693 252.459 C 224.712 246.861 242.449 241.027 258.507 235.417 C 260.592 233.345 265.06 230.173 268.036 229.569 C 274.383 228.259 277.594 227.471 283.939 226.16 C 286.495 225.624 287.02 227.721 284.593 228.888 C 279.625 231.286 275.075 233.2 269.989 235.627 C 266.714 237.198 262.977 237.185 259.357 237.513 C 242.973 243.019 225.445 249.062 209.084 254.555 C 214.748 264.624 221.709 272.291 229.313 277.273 C 229.313 277.365 229.155 277.484 229.129 277.508 C 221.92 274.182 212.652 263.639 208.771 256.85 C 210.843 268.857 215.811 277.456 221.578 285.689 C 221.493 285.772 221.391 285.83 221.277 285.86 C 215.391 279.674 209.899 267.729 207.997 259.301 C 207.506 267.803 208.9 276.306 212.075 284.208 C 211.985 284.258 211.886 284.286 211.786 284.287 C 208.562 279.044 206.988 269.54 206.856 262.003 C 205.259 271.525 205.304 281.253 206.988 290.763 C 206.89 290.794 206.785 290.794 206.687 290.763 C 203.947 282.347 204.617 266.616 206.555 257.676 C 202.64 266.943 200.536 276.875 200.355 286.935 C 200.274 286.965 200.185 286.965 200.107 286.935 C 199.398 280.38 201.417 270.011 203.777 262.59 C 199.73 271.331 197.144 280.674 196.121 290.252 C 196.018 290.277 195.911 290.277 195.806 290.252 C 195.465 280.145 200.774 262.092 205.518 254.544 C 198.06 251.266 183.326 238.235 178.398 228.679 C 178.454 228.587 178.542 228.522 178.647 228.494 C 184.251 236.295 191.091 243.127 198.899 248.723 C 193.17 243.478 186.341 235.404 183.746 229.412 C 183.746 229.412 183.876 229.268 183.942 229.282 C 189.081 237.941 195.82 245.544 203.801 251.686 C 197.706 244.881 189.384 231.496 187.575 222.844 C 187.661 222.788 187.76 222.758 187.861 222.753 C 191.653 233.33 197.469 243.069 204.982 251.422 C 199.739 243.283 192.357 232.546 190.955 221.021 C 190.955 221.021 191.152 220.918 191.244 220.943 C 193.497 229.411 197.063 237.475 201.81 244.841 C 198.428 236.453 195.621 224.915 196.566 217.536 C 196.68 217.507 196.796 217.507 196.907 217.536 C 197.185 226.689 199.192 235.71 202.819 244.122 C 200.578 237.015 198.809 228.074 199.305 222.202 C 199.305 222.202 199.49 222.202 199.555 222.202 C 199.984 232.096 202.27 241.822 206.292 250.871" style="fill: rgb(169, 154, 141); fill-rule: evenodd;"/>
  <path class="d" d="M 244.822 160.393 C 251.191 154.965 265.219 148.596 274.749 147.875 C 274.81 147.973 274.848 148.085 274.853 148.2 C 265.048 150.404 255.649 153.367 246.013 160.931 C 253.29 156.593 267.579 152.489 276.872 153.065 C 276.91 153.174 276.91 153.295 276.872 153.405 C 266.136 154.244 255.727 156.027 244.219 163.317 C 255.924 175.509 268.575 189.155 280.346 201.332 C 283.086 202.368 287.793 205.082 289.601 207.545 C 293.43 212.79 295.462 215.333 299.29 220.523 C 300.836 222.621 299.156 223.97 297.086 222.267 C 292.851 218.768 289.221 215.437 284.921 211.781 C 282.142 209.474 280.608 206.078 278.8 202.931 C 267 190.386 254.272 177.003 242.488 164.458 C 235.71 173.764 231.646 183.255 230.296 192.209 C 230.218 192.209 230.048 192.209 230.008 192.144 C 230.008 184.277 235.736 171.457 240.272 165.126 C 230.256 171.982 224.541 180.057 219.495 188.722 C 219.39 188.722 219.232 188.566 219.218 188.538 C 222.378 180.674 230.925 170.71 237.769 165.494 C 229.86 168.578 222.728 173.373 216.885 179.533 C 216.802 179.471 216.734 179.391 216.689 179.296 C 220.136 174.197 228.067 168.81 234.819 165.597 C 225.528 168.106 216.732 172.18 208.811 177.644 C 208.718 177.644 208.654 177.434 208.64 177.409 C 215.116 171.444 229.614 165.518 238.554 163.551 C 228.535 163.862 218.665 166.087 209.479 170.107 C 209.429 170.043 209.401 169.964 209.399 169.885 C 215.01 166.528 225.261 164.023 232.997 163.093 C 223.399 163.058 213.86 164.593 204.759 167.641 C 204.699 167.557 204.662 167.458 204.655 167.354 C 213.674 162.844 232.185 160.158 241.032 161.323 C 241.032 153.21 246.668 134.412 253.238 125.93 C 253.238 125.93 253.459 125.93 253.512 126.086 C 248.77 134.395 245.417 143.425 243.589 152.815 C 246.001 145.436 250.432 135.918 254.796 131.067 C 254.796 131.067 254.966 131.067 255.006 131.198 C 249.288 139.447 245.197 148.711 242.946 158.493 C 246.592 150.129 255.243 137.006 262.36 131.802 C 262.36 131.802 262.544 131.921 262.57 132.012 C 254.559 139.835 248.15 149.144 243.705 159.423 C 248.95 151.243 255.504 140.153 265.428 134.097 C 265.428 134.097 265.612 134.227 265.612 134.318 C 258.875 139.873 253.047 146.451 248.347 153.813 C 254.548 147.258 263.815 139.93 270.896 137.7 C 270.983 137.781 271.042 137.885 271.066 138.002 C 262.889 142.063 255.552 147.627 249.436 154.403 C 254.942 149.434 262.309 144.11 267.788 142.119 C 267.788 142.119 267.919 142.25 267.904 142.329 C 259.121 146.826 251.259 152.936 244.73 160.341" style="fill: rgb(108, 175, 182); fill-rule: evenodd;"/>
  <path class="e" d="M 358.332 94.454 C 367.981 98.767 382.912 111.235 388.916 121.721 C 388.916 121.721 388.719 121.996 388.602 122.01 C 380.735 112.047 372.254 102.961 358.371 96.131 C 367.272 102.045 379.766 116.07 384.104 127.004 C 384.011 127.118 383.889 127.204 383.749 127.254 C 376.934 115.455 369.226 104.602 354.634 95.478 C 347.15 115.455 326.347 165.755 318.875 185.813 C 319.202 189.496 318.678 196.299 316.856 199.733 C 313.027 206.931 311.179 210.653 307.35 217.851 C 305.804 220.749 303.341 219.579 304.166 216.291 C 305.842 209.564 307.665 203.614 309.409 196.746 C 310.536 192.312 313.552 188.709 316.159 184.947 C 324.027 164.654 344.45 114.393 352.302 94.14 C 338.014 91.517 324.996 92.055 314.05 95.45 C 313.983 95.386 313.971 95.135 313.971 95.083 C 323.003 90.797 340.647 90.324 350.336 92.041 C 337.07 84.374 324.748 82.263 312.175 81.228 C 312.158 81.081 312.181 80.939 312.239 80.809 C 322.965 80.099 338.918 84.4 348.592 89.356 C 340.789 82.026 331.467 76.513 321.286 73.205 C 321.303 73.073 321.359 72.951 321.442 72.85 C 329.125 74.004 339.574 80.088 346.927 85.959 C 339.005 76.743 329.567 68.951 319.017 62.915 C 319.017 62.796 319.162 62.613 319.202 62.586 C 329.519 66.703 344.199 80.021 351.294 89.092 C 345.454 77.861 337.529 67.842 327.946 59.572 C 327.946 59.479 328.129 59.373 328.169 59.363 C 335.037 63.924 343.492 74.228 348.75 82.526 C 343.562 71.573 336.613 61.547 328.182 52.846 C 328.182 52.728 328.417 52.584 328.457 52.571 C 338.499 60.436 351.685 80.099 355.161 90.72 C 364.337 86.234 388.903 82.459 402.117 85.29 C 402.159 85.418 402.159 85.556 402.117 85.685 C 390.066 84.814 377.953 85.923 366.263 88.974 C 375.978 87.664 389.244 87.546 397.136 89.88 C 397.17 89.976 397.17 90.083 397.136 90.181 C 384.626 88.17 371.849 88.563 359.486 91.334 C 370.97 90.941 390.646 93.616 400.466 98.886 C 400.466 98.886 400.466 99.172 400.334 99.239 C 387.055 94.381 372.959 92.153 358.831 92.686 C 370.984 94.113 387.251 95.687 399.468 103.618 C 399.468 103.618 399.468 103.894 399.297 103.958 C 389.295 99.331 378.631 96.296 367.692 94.966 C 378.532 98.441 391.943 105.008 398.341 111.864 C 398.291 112.004 398.204 112.128 398.093 112.23 C 389.015 105.118 378.68 99.781 367.625 96.499 C 376.291 100.065 386.359 105.557 391.656 110.762 C 391.629 110.862 391.57 110.951 391.485 111.012 C 381.572 103.462 370.331 97.84 358.345 94.442" style="fill: rgb(123, 106, 93); fill-rule: evenodd;"/>
  <path class="g" d="M 365.543 244.514 C 362.685 251.842 353.94 263.391 346.365 268.227 C 346.365 268.227 346.155 268.097 346.141 268.006 C 353.271 261.817 359.722 255.158 364.309 244.594 C 360.219 251.436 350.245 261.215 342.261 264.833 C 342.17 264.769 342.099 264.678 342.065 264.571 C 350.559 259.078 358.385 252.969 364.652 241.788 C 349.524 236.937 332.966 231.3 317.785 226.451 C 315.06 226.817 309.922 226.672 307.298 225.441 C 301.819 222.819 298.973 221.612 293.481 219.017 C 291.266 217.98 292.054 216.107 294.517 216.592 C 299.576 217.601 304.074 218.754 309.252 219.804 C 312.595 220.485 315.375 222.596 318.258 224.39 C 333.609 229.516 350.127 234.878 365.449 240.018 C 366.906 229.295 366.027 219.633 363.157 211.624 C 363.157 211.624 363.393 211.544 363.419 211.544 C 366.932 218.099 367.916 231.208 366.985 238.471 C 372.229 228.324 373.342 219.097 373.657 209.711 C 373.758 209.677 373.869 209.677 373.971 209.711 C 374.875 217.654 372.241 229.674 368.923 237.042 C 374.096 230.947 377.857 223.783 379.937 216.068 C 380.032 216.076 380.123 216.112 380.198 216.172 C 379.621 221.928 375.465 229.911 371.323 235.586 C 377.895 229.363 383.356 222.067 387.474 214.009 C 387.566 214.009 387.697 214.116 387.71 214.14 C 385.023 222.005 375.636 233.358 369.148 238.956 C 377.298 234.236 384.474 228.009 390.292 220.602 C 390.358 220.602 390.449 220.735 390.463 220.759 C 387.315 226.004 379.975 232.677 373.971 236.897 C 381.928 232.647 389.134 227.121 395.299 220.537 C 395.392 220.537 395.509 220.706 395.522 220.735 C 390.057 228.494 375.924 238.996 368.112 241.957 C 371.781 248.656 375.465 266.747 373.828 276.696 C 373.734 276.729 373.631 276.729 373.538 276.696 C 373.753 267.705 372.494 258.738 369.815 250.15 C 371.126 257.347 371.691 267.191 370.249 273.144 C 370.172 273.171 370.088 273.171 370.012 273.144 C 371.056 263.772 370.31 254.287 367.81 245.195 C 368.517 253.728 367.233 268.45 363.668 275.937 C 363.668 275.937 363.458 275.937 363.393 275.845 C 366.531 265.796 367.677 255.235 366.775 244.751 C 366.145 253.847 365.554 265.999 360.102 275.399 C 360.102 275.399 359.893 275.399 359.851 275.294 C 362.946 267.691 364.825 259.648 365.425 251.462 C 363.234 259.642 358.869 269.815 353.967 274.849 C 353.855 274.822 353.756 274.761 353.678 274.677 C 358.637 267.674 362.225 259.797 364.257 251.462 C 361.924 258.017 358.2 265.725 354.505 269.815 C 354.505 269.815 354.347 269.815 354.321 269.696 C 359.58 262.054 363.359 253.495 365.464 244.462" style="fill: rgb(175, 202, 192); fill-rule: evenodd;"/>
  <path class="f" d="M 451.221 235.155 C 449.413 245.576 440.999 263.101 432.32 271.494 C 432.178 271.449 432.05 271.368 431.952 271.257 C 439.687 261.201 446.372 250.728 449.623 235.586 C 446.085 245.681 435.545 261.229 426.028 268.125 C 426.028 268.125 425.725 267.966 425.7 267.835 C 435.412 258.33 444.052 248.17 449.297 231.811 C 428.073 229.465 374.22 221.678 352.945 219.357 C 349.444 220.577 342.681 221.743 338.944 220.825 C 331.08 218.887 326.976 218.021 319.045 216.068 C 315.858 215.295 316.422 212.619 319.779 212.607 C 326.713 212.607 332.888 212.894 340.019 212.894 C 344.581 212.894 348.827 214.94 353.128 216.54 C 374.706 219.16 428.453 226.632 450.018 229.254 C 449.06 214.743 445.338 202.262 439.412 192.484 C 439.412 192.393 439.687 192.327 439.739 192.327 C 446.124 200.022 450.922 217.012 451.63 226.83 C 455.811 212.082 454.815 199.615 452.718 187.188 C 452.861 187.153 453.008 187.153 453.15 187.188 C 456.48 197.413 456.231 213.931 453.807 224.522 C 458.978 215.136 462.017 204.725 462.708 194.031 C 462.831 194.018 462.959 194.041 463.075 194.096 C 463.86 201.818 460.518 213.446 456.519 222.046 C 463.504 212.081 468.735 200.997 471.988 189.273 C 472.118 189.265 472.248 189.302 472.355 189.378 C 470.9 200.402 461.592 217.904 454.552 227 C 464.02 218.602 471.802 208.474 477.482 197.164 C 477.573 197.164 477.717 197.281 477.743 197.322 C 475.016 205.107 467.099 215.831 460.359 222.963 C 469.701 215.244 477.712 206.047 484.073 195.735 C 484.205 195.735 484.376 195.906 484.416 195.931 C 479.303 207.598 463.441 225.205 453.99 231.196 C 460.544 239.06 470.297 261.856 470.795 275.385 C 470.795 275.385 470.52 275.503 470.401 275.451 C 468.281 263.554 464.223 252.085 458.395 241.499 C 462.038 250.609 465.434 263.43 465.105 271.649 C 465.008 271.683 464.902 271.683 464.803 271.649 C 463.677 259.031 460.158 246.743 454.434 235.442 C 457.646 246.48 459.888 266.209 457.176 277.012 C 457.055 277.045 456.926 277.045 456.808 277.012 C 458.227 262.943 456.891 248.737 452.875 235.18 C 454.487 247.306 456.966 263.456 452.286 277.299 C 452.157 277.315 452.027 277.288 451.918 277.22 C 453.953 266.382 454.278 255.296 452.887 244.357 C 452.179 255.723 449.112 270.326 444.052 278.218 C 443.906 278.209 443.765 278.158 443.646 278.074 C 448.299 267.523 450.919 256.192 451.368 244.671 C 450.056 253.953 447.198 265.068 443.501 271.466 C 443.501 271.466 443.267 271.466 443.215 271.361 C 448.075 259.893 450.743 247.617 451.079 235.167" style="fill: rgb(182, 183, 78); fill-rule: evenodd;"/>
  <path class="h" d="M 408.71 310.124 C 401.095 317.454 383.935 326.616 372.006 328.243 C 371.916 328.124 371.861 327.982 371.848 327.835 C 384.027 324.295 395.655 319.838 407.241 309.481 C 398.42 315.512 380.735 321.817 368.965 321.727 C 368.889 321.599 368.852 321.453 368.86 321.307 C 382.335 319.406 395.299 316.351 409.236 306.258 C 393.504 291.838 354.715 253.664 338.93 239.217 C 335.391 238.13 329.243 235.075 326.779 232.126 C 321.536 225.873 318.783 222.767 313.563 216.513 C 311.454 213.983 313.461 212.149 316.187 214.14 C 321.785 218.216 326.675 222.151 332.325 226.345 C 336.007 229.046 338.223 233.2 340.727 237.015 C 356.577 251.907 395.471 289.727 411.318 304.606 C 419.186 292.348 423.51 280.065 424.521 268.687 C 424.64 268.643 424.77 268.643 424.887 268.687 C 425.49 278.663 419.29 295.193 414.071 303.531 C 426.158 294.105 432.739 283.488 438.414 272.225 C 438.558 272.259 438.686 272.337 438.781 272.45 C 435.412 282.648 425.425 295.823 417.218 302.929 C 426.899 298.453 435.475 291.901 442.335 283.735 C 442.451 283.796 442.542 283.894 442.597 284.012 C 438.665 290.697 429.083 298.09 420.837 302.692 C 432.353 298.808 443.124 292.99 452.677 285.481 C 452.784 285.546 452.863 285.648 452.9 285.768 C 445.206 293.804 427.352 302.404 416.275 305.563 C 428.878 304.398 441.147 300.837 452.415 295.074 C 452.492 295.152 452.535 295.254 452.534 295.364 C 445.729 300.018 433.002 303.989 423.34 305.747 C 435.441 305.045 447.344 302.364 458.575 297.816 C 458.662 297.919 458.714 298.047 458.722 298.183 C 447.71 304.554 424.533 309.39 413.351 308.669 C 414.033 318.894 408.331 343.028 400.74 354.225 C 400.604 354.202 400.479 354.138 400.386 354.041 C 405.715 343.198 409.235 331.556 410.793 319.577 C 408.344 329.068 403.492 341.417 398.367 347.853 C 398.267 347.833 398.176 347.782 398.105 347.708 C 404.685 336.874 409.134 324.883 411.213 312.38 C 407.282 323.181 397.397 340.408 388.838 347.525 C 388.838 347.525 388.588 347.394 388.561 347.264 C 398.045 336.779 405.394 324.548 410.191 311.251 C 404.319 321.974 396.754 336.461 384.799 344.864 C 384.799 344.864 384.565 344.707 384.537 344.589 C 392.592 337.057 399.417 328.313 404.765 318.671 C 397.475 327.416 386.413 337.378 377.603 340.733 C 377.493 340.635 377.415 340.509 377.38 340.368 C 387.359 334.629 396.173 327.071 403.363 318.082 C 396.806 324.78 387.92 332.055 381.077 334.993 C 380.992 334.931 380.933 334.844 380.905 334.743 C 391.622 328.388 401.048 320.076 408.697 310.243" style="fill: rgb(133, 162, 168); fill-rule: evenodd;"/>
  <path class="e" d="M 337.084 366.482 C 326.66 368.277 307.312 366.27 296.444 360.923 C 296.437 360.777 296.467 360.632 296.535 360.503 C 308.609 364.435 320.735 367.188 336.059 365.132 C 325.376 365.132 307.22 360.516 297.479 353.844 C 297.49 353.694 297.544 353.552 297.638 353.437 C 309.855 359.401 322.322 364.133 339.586 363.571 C 334.646 342.819 323.856 289.466 318.875 268.661 C 316.541 265.776 313.172 259.813 312.778 255.972 C 311.94 247.883 311.388 243.754 310.562 235.64 C 310.235 232.363 312.909 231.967 314.077 235.155 C 316.436 241.708 318.231 247.62 320.63 254.293 C 322.165 258.591 321.667 263.272 321.613 267.835 C 326.412 289.06 337.476 342.164 342.261 363.36 C 355.592 357.579 366.092 349.858 373.304 340.997 C 373.408 340.997 373.551 341.22 373.578 341.258 C 368.479 349.858 354.098 360.084 345.091 364.068 C 360.377 363.033 371.796 357.906 382.795 351.76 C 382.892 351.87 382.956 352.005 382.977 352.151 C 374.469 358.708 358.831 364.042 348.042 365.327 C 358.619 367.042 369.441 366.397 379.74 363.439 C 379.798 363.555 379.821 363.689 379.804 363.82 C 372.792 367.163 360.719 367.922 351.318 367.11 C 363.037 370.337 375.221 371.54 387.342 370.662 C 387.422 370.769 387.342 370.991 387.342 371.043 C 376.462 373.388 356.851 370.519 345.918 366.94 C 357.018 373.031 369.177 376.946 381.745 378.476 C 381.745 378.567 381.745 378.751 381.745 378.79 C 373.486 378.79 360.771 374.989 351.738 371.03 C 362.157 377.215 373.52 381.642 385.377 384.138 C 385.387 384.271 385.354 384.405 385.286 384.52 C 372.595 383.64 350.689 374.686 341.855 367.752 C 336.702 376.614 318.467 393.434 305.908 398.455 C 305.806 398.365 305.738 398.246 305.713 398.111 C 316.166 392.14 325.575 384.502 333.569 375.5 C 326.215 382.054 315.295 389.501 307.443 391.965 C 307.366 391.895 307.313 391.803 307.298 391.702 C 318.803 386.398 329.193 378.95 337.91 369.758 C 328.589 376.509 310.772 385.24 299.695 386.341 C 299.695 386.341 299.565 386.091 299.616 385.986 C 313.343 382.6 326.279 376.57 337.698 368.237 C 326.819 373.85 312.451 381.609 297.834 381.871 C 297.795 381.746 297.795 381.614 297.834 381.491 C 308.722 379.763 319.272 376.339 329.1 371.345 C 318.167 374.504 303.379 376.587 294.242 374.424 C 294.202 374.283 294.202 374.132 294.242 373.992 C 305.748 374.836 317.314 373.503 328.325 370.059 C 319.149 371.921 307.718 372.996 300.43 371.62 C 300.399 371.52 300.399 371.414 300.43 371.317 C 312.852 372.046 325.302 370.441 337.136 366.586" style="fill: rgb(123, 106, 93); fill-rule: evenodd;"/>
  <path class="h" d="M 267.538 357.632 C 257.418 354.591 241.006 344.155 233.718 334.534 C 233.718 334.534 233.861 334.245 233.993 334.205 C 243.064 343.068 252.66 350.999 267.302 355.994 C 257.706 351.273 243.536 338.952 237.822 328.673 C 237.822 328.673 238.016 328.398 238.148 328.385 C 246.42 339.175 255.453 348.98 271.104 356.165 C 275.954 335.372 290.113 282.819 294.936 261.974 C 294.151 258.357 293.797 251.488 295.147 247.897 C 298.017 240.28 299.368 236.334 302.238 228.705 C 303.407 225.636 305.988 226.475 305.595 229.832 C 304.795 236.714 303.747 242.849 302.907 249.888 C 302.356 254.425 299.827 258.383 297.743 262.447 C 292.498 283.566 278.746 336.041 273.569 357.134 C 288.094 357.92 300.926 355.692 311.335 350.986 C 311.428 350.986 311.468 351.287 311.468 351.34 C 303.077 356.768 285.629 359.494 275.797 359.034 C 289.942 364.935 302.435 365.431 315.019 364.841 C 315.065 364.983 315.065 365.133 315.019 365.274 C 304.533 367.36 288.108 365.132 277.868 361.46 C 286.567 367.725 296.548 371.986 307.088 373.94 C 307.086 374.072 307.048 374.203 306.983 374.32 C 299.209 374.162 288.067 369.456 280.005 364.515 C 289.043 372.649 299.41 379.173 310.654 383.799 C 310.653 383.93 310.603 384.057 310.511 384.153 C 299.734 381.398 283.466 370.072 275.272 361.996 C 282.49 372.395 291.618 381.322 302.172 388.308 C 302.172 388.413 302.016 388.529 301.989 388.543 C 294.583 384.912 284.883 375.774 278.603 368.223 C 285.153 378.421 293.332 387.473 302.815 395.019 C 302.815 395.151 302.606 395.295 302.568 395.32 C 291.608 388.857 276.008 371.068 271.183 360.936 C 262.622 366.572 238.79 373.468 225.302 372.354 C 225.261 372.219 225.261 372.08 225.302 371.948 C 237.365 371.264 249.234 368.609 260.434 364.082 C 250.956 366.598 237.822 368.46 229.693 367.163 C 229.653 367.061 229.653 366.949 229.693 366.849 C 242.357 367.237 254.98 365.209 266.882 360.869 C 255.531 362.745 235.684 362.613 225.275 358.655 C 225.275 358.655 225.275 358.366 225.367 358.288 C 239.143 361.381 253.392 361.769 267.316 359.429 C 255.073 359.572 238.751 360.11 225.562 353.83 C 225.562 353.83 225.562 353.555 225.668 353.477 C 236.181 356.788 247.145 358.432 258.166 358.354 C 246.983 356.308 232.839 351.523 225.604 345.547 C 225.634 345.399 225.702 345.263 225.799 345.152 C 235.72 351.03 246.66 354.981 258.049 356.793 C 249.002 354.381 238.293 350.238 232.394 345.743 C 232.405 345.637 232.452 345.54 232.524 345.466 C 243.325 351.684 255.199 355.814 267.527 357.645" style="fill: rgb(133, 162, 168); fill-rule: evenodd;"/>
  <path class="f" d="M 153.99 236.085 C 151.773 225.754 153.044 206.342 157.921 195.315 C 158.065 195.301 158.21 195.328 158.341 195.393 C 154.945 207.598 152.612 219.842 155.274 235.075 C 154.787 224.39 158.759 206.052 165.039 196.077 C 165.185 196.081 165.327 196.134 165.445 196.219 C 159.966 208.674 155.718 221.311 156.951 238.471 C 177.506 232.729 230.361 219.856 250.995 214.062 C 253.787 211.635 259.621 208.018 263.437 207.507 C 271.498 206.366 275.6 205.645 283.675 204.491 C 286.926 204.033 287.44 206.709 284.305 207.992 C 277.882 210.615 271.996 212.633 265.428 215.281 C 261.181 216.972 256.489 216.669 251.926 216.775 C 230.953 222.399 178.279 235.533 157.278 241.157 C 163.584 254.267 171.699 264.441 180.875 271.309 C 180.875 271.413 180.666 271.558 180.625 271.596 C 171.83 266.838 161.053 252.865 156.716 244.068 C 158.341 259.223 163.898 270.417 170.532 281.115 C 170.424 281.219 170.286 281.287 170.138 281.31 C 163.242 273.065 157.306 257.649 155.599 246.913 C 154.3 257.572 155.369 268.386 158.734 278.584 C 158.613 278.648 158.476 278.675 158.341 278.663 C 154.749 271.795 153.503 259.76 153.948 250.322 C 151.184 262.155 150.456 274.372 151.799 286.45 C 151.675 286.492 151.542 286.492 151.418 286.45 C 148.652 275.673 150.75 255.972 153.91 244.894 C 148.252 256.22 144.814 268.522 143.777 281.14 C 143.678 281.177 143.572 281.177 143.474 281.14 C 143.095 272.894 146.437 259.996 150.029 250.86 C 144.259 261.496 140.271 273.011 138.232 284.943 C 138.096 284.961 137.961 284.937 137.837 284.876 C 138.219 272.162 146.306 249.929 152.887 240.817 C 143.842 236.019 126.315 218.453 120.809 206.091 C 120.809 206.091 121.03 205.88 121.148 205.88 C 127.559 216.125 135.601 225.252 144.957 232.899 C 138.191 225.807 130.248 215.189 127.482 207.429 C 127.482 207.429 127.652 207.284 127.743 207.284 C 133.492 218.58 141.341 228.682 150.868 237.042 C 143.763 227.984 134.325 210.535 132.791 199.497 C 132.791 199.497 133.04 199.353 133.157 199.394 C 137.071 212.98 143.594 225.675 152.363 236.768 C 146.345 226.096 138.022 212.044 137.183 197.438 C 137.183 197.438 137.445 197.322 137.55 197.374 C 139.705 208.185 143.541 218.593 148.914 228.219 C 145.336 217.418 142.715 202.722 144.484 193.506 C 144.626 193.468 144.775 193.468 144.917 193.506 C 144.517 205.022 146.295 216.51 150.159 227.368 C 147.919 218.27 146.411 206.89 147.538 199.563 C 147.635 199.523 147.744 199.523 147.839 199.563 C 147.591 212.021 149.684 224.413 154.014 236.098" style="fill: rgb(182, 183, 78); fill-rule: evenodd;"/>
  <path class="c" d="M 164.175 159.278 C 168.29 149.54 180.441 134.372 190.799 128.145 C 190.931 128.212 191.036 128.324 191.1 128.459 C 181.307 136.521 172.38 145.199 165.839 159.214 C 171.581 150.181 185.332 137.413 196.186 132.851 C 196.186 132.851 196.437 133.072 196.437 133.191 C 184.808 140.257 174.086 148.176 165.262 162.962 C 185.411 170.028 236.116 189.798 256.317 196.851 C 260.001 196.445 266.806 196.851 270.279 198.579 C 277.542 202.262 281.317 204.02 288.632 207.755 C 291.554 209.251 290.44 211.688 287.136 210.968 C 280.373 209.421 274.395 207.73 267.474 206.13 C 263.017 205.096 259.357 202.199 255.544 199.577 C 235.106 192.129 184.441 172.741 164.016 165.309 C 161.657 179.664 162.483 192.666 166.048 203.522 C 165.94 203.596 165.81 203.626 165.681 203.614 C 161.197 194.687 160.372 177.041 161.879 167.327 C 154.486 180.751 152.626 193.114 151.865 205.699 C 151.723 205.737 151.573 205.737 151.432 205.699 C 150.5 195 154.486 178.956 159.219 169.178 C 152.06 177.156 146.751 186.619 143.673 196.889 C 143.538 196.869 143.411 196.815 143.305 196.732 C 144.3 189.036 150.174 178.458 155.942 170.986 C 146.892 179.096 139.299 188.694 133.485 199.365 C 133.356 199.365 133.171 199.222 133.157 199.195 C 137.092 188.709 150.081 173.83 158.996 166.554 C 147.875 172.572 137.997 180.652 129.893 190.36 C 129.788 190.36 129.684 190.189 129.672 190.165 C 134.089 183.203 144.222 174.538 152.402 169.111 C 141.557 174.526 131.674 181.682 123.143 190.294 C 123.024 190.294 122.88 190.059 122.867 190.02 C 130.483 179.794 149.858 166.227 160.464 162.491 C 155.798 153.315 151.509 128.944 154.066 115.651 C 154.195 115.607 154.332 115.607 154.46 115.651 C 153.843 127.715 155.203 139.801 158.485 151.426 C 157.003 141.725 156.597 128.486 158.747 120.542 C 158.845 120.508 158.951 120.508 159.048 120.542 C 157.298 133.087 157.952 145.85 160.976 158.15 C 160.333 146.668 162.614 126.952 167.674 117.028 C 167.805 117.032 167.928 117.077 168.029 117.16 C 163.45 130.531 161.522 144.669 162.351 158.78 C 163.519 146.601 164.765 130.308 172.433 117.88 C 172.559 117.892 172.677 117.945 172.773 118.024 C 168.338 128.117 165.51 138.844 164.397 149.814 C 167.647 138.908 173.941 125.365 180.652 118.824 C 180.795 118.866 180.923 118.948 181.02 119.061 C 174.102 128.283 168.993 138.731 165.957 149.853 C 169.339 141.123 174.622 130.925 179.721 125.537 C 179.721 125.537 179.931 125.628 179.97 125.706 C 172.624 135.771 167.234 147.129 164.082 159.186" style="fill: rgb(169, 154, 141); fill-rule: evenodd;"/>
  <path class="e" d="M 206.74 112.099 C 214.605 104.968 231.935 96.25 243.942 94.94 C 244.03 95.058 244.08 95.199 244.087 95.346 C 231.817 98.558 220.084 102.726 208.287 112.729 C 217.266 106.921 235.106 101.075 246.865 101.467 C 246.933 101.596 246.961 101.742 246.945 101.887 C 233.455 103.447 220.345 106.173 206.202 115.939 C 221.539 130.78 259.357 169.923 274.763 184.775 C 278.274 185.956 284.332 189.167 286.73 192.182 C 291.791 198.568 294.479 201.738 299.552 208.123 C 301.596 210.745 299.552 212.488 296.85 210.432 C 291.358 206.196 286.626 202.145 281.028 197.806 C 277.41 195 275.325 190.794 272.914 186.925 C 257.457 171.614 219.533 132.811 204.092 117.526 C 195.965 129.587 191.27 141.739 189.973 153.092 C 189.867 153.092 189.645 153.092 189.605 153.025 C 189.265 143.036 195.885 126.664 201.325 118.471 C 189.002 127.647 182.147 138.042 176.181 149.144 C 176.044 149.1 175.921 149.02 175.827 148.91 C 179.459 138.789 189.776 125.877 198.113 118.981 C 188.278 123.237 179.501 129.605 172.406 137.635 C 172.302 137.635 172.171 137.399 172.157 137.347 C 176.274 130.792 186.039 123.623 194.442 119.244 C 182.822 122.812 171.896 128.348 162.141 135.604 C 162.032 135.532 161.951 135.425 161.907 135.302 C 169.77 127.436 187.888 119.335 199.03 116.452 C 186.41 117.309 174.07 120.56 162.666 126.034 C 162.601 125.951 162.566 125.849 162.561 125.747 C 169.484 121.263 182.304 117.631 192.018 116.111 C 179.914 116.501 167.958 118.875 156.623 123.137 C 156.531 123.059 156.491 122.809 156.479 122.77 C 167.674 116.674 190.942 112.438 202.112 113.501 C 201.692 103.276 207.997 79.288 215.889 68.288 C 215.889 68.288 216.179 68.369 216.244 68.487 C 210.636 79.188 206.818 90.736 204.942 102.673 C 207.644 93.249 212.81 81.017 218.052 74.724 C 218.052 74.724 218.275 74.724 218.314 74.883 C 211.474 85.549 206.732 97.424 204.339 109.871 C 208.562 99.161 218.865 82.197 227.608 75.303 C 227.608 75.303 227.858 75.459 227.871 75.564 C 218.124 85.786 210.462 97.807 205.31 110.958 C 211.47 100.38 219.401 86.051 231.528 78.002 C 231.528 78.002 231.765 78.173 231.779 78.279 C 223.537 85.597 216.491 94.16 210.895 103.658 C 218.407 95.111 229.784 85.437 238.607 82.303 C 238.719 82.4 238.801 82.527 238.842 82.671 C 228.711 88.166 219.705 95.519 212.296 104.352 C 219.023 97.797 228.028 90.784 234.962 88.018 C 234.962 88.018 235.134 88.177 235.134 88.281 C 224.254 94.35 214.613 102.412 206.712 112.047" style="fill: rgb(123, 106, 93); fill-rule: evenodd;"/>
  <path class="h" d="M 322.426 65.417 C 332.914 67.056 350.544 75.184 359.132 83.771 C 359.132 83.771 359.015 84.087 358.909 84.138 C 348.722 76.574 338.144 70.019 322.965 67.095 C 333.11 70.478 348.827 80.728 355.88 90.168 C 355.88 90.168 355.723 90.456 355.605 90.496 C 345.945 80.927 335.666 72.444 319.189 67.45 C 317.209 88.701 310.299 142.696 308.333 163.999 C 309.645 167.472 310.956 174.211 310.04 177.972 C 308.229 185.902 307.417 189.992 305.606 197.951 C 304.874 201.149 302.2 200.664 302.134 197.269 C 302.003 190.347 302.134 184.161 302.134 177.041 C 302.055 172.466 304.034 168.193 305.541 163.933 C 307.81 142.302 314.391 88.45 316.659 66.833 C 302.172 68.025 289.746 71.972 280.072 78.043 C 279.967 78.043 279.9 77.766 279.9 77.714 C 287.491 71.16 304.401 66.126 314.195 65.247 C 299.38 61.316 286.939 62.508 274.539 64.815 C 274.496 64.673 274.496 64.523 274.539 64.383 C 284.698 60.896 301.23 60.87 311.86 63.071 C 302.39 58.053 291.929 55.188 281.224 54.683 C 281.194 54.555 281.194 54.426 281.224 54.301 C 288.946 53.397 300.614 56.529 309.277 60.331 C 299.214 53.511 288.06 48.455 276.297 45.386 C 276.284 45.257 276.317 45.126 276.388 45.019 C 287.44 46.33 305.083 55.297 314.313 62.193 C 305.753 52.863 295.493 45.251 284.081 39.763 C 284.081 39.659 284.2 39.515 284.227 39.502 C 292.092 42.122 302.921 49.844 310.156 56.464 C 302.281 47.255 292.95 39.4 282.536 33.209 C 282.536 33.092 282.693 32.908 282.731 32.882 C 294.53 37.797 312.346 53.305 318.481 62.704 C 326.11 55.914 348.816 45.834 362.29 45.151 C 362.361 45.27 362.387 45.407 362.37 45.545 C 350.514 47.867 339.115 52.113 328.627 58.117 C 337.673 54.329 350.441 50.722 358.66 50.906 C 358.66 50.906 358.752 51.128 358.66 51.193 C 346.078 52.55 333.867 56.282 322.677 62.193 C 333.661 58.797 353.351 56.228 364.192 58.746 C 364.233 58.869 364.233 59.001 364.192 59.126 C 350.106 57.914 335.92 59.462 322.426 63.687 C 334.539 61.878 350.637 59.139 364.56 63.582 C 364.579 63.713 364.558 63.846 364.493 63.963 C 353.623 62.086 342.523 61.93 331.602 63.505 C 342.982 64.029 357.637 66.846 365.607 71.789 C 365.593 71.939 365.539 72.084 365.449 72.209 C 354.829 67.729 343.457 65.296 331.93 65.038 C 341.212 66.205 352.393 68.878 358.845 72.524 C 358.846 72.627 358.814 72.728 358.752 72.812 C 347.208 68.115 334.888 65.628 322.426 65.484" style="fill: rgb(133, 162, 168); fill-rule: evenodd;"/>
  <path class="e" d="M 198.952 303.596 C 192.659 295.102 185.738 276.933 185.633 264.859 C 185.764 264.78 185.916 264.743 186.067 264.756 C 188.032 277.287 190.983 289.386 199.739 302.127 C 194.876 292.612 190.864 274.271 192.424 262.605 C 192.563 262.559 192.716 262.559 192.857 262.605 C 193.04 276.198 194.416 289.466 202.674 304.554 C 218.981 290.788 261.758 257.125 278.091 243.307 C 279.613 239.926 283.427 234.223 286.678 232.14 C 293.534 227.748 296.969 225.401 303.837 221.01 C 306.605 219.24 308.176 221.455 305.842 223.919 C 301.085 228.953 296.588 233.253 291.699 238.339 C 288.538 241.655 284.135 243.307 280.033 245.314 C 263.252 259.143 220.792 292.94 204 306.769 C 215.168 316.076 226.784 321.964 237.951 324.413 C 237.951 324.518 237.887 324.728 237.86 324.78 C 227.884 324.099 212.272 315.866 204.655 309.627 C 212.519 322.814 222.169 330.693 232.629 337.744 C 232.569 337.877 232.475 337.991 232.354 338.074 C 222.665 333.446 210.854 321.857 204.826 312.812 C 208.06 323.025 213.514 332.399 220.792 340.263 C 220.711 340.37 220.602 340.451 220.477 340.499 C 214.342 335.739 208.22 325.318 204.746 316.534 C 207.164 328.455 211.595 339.874 217.855 350.305 C 217.855 350.423 217.581 350.501 217.541 350.501 C 210.554 341.834 204.288 323.038 202.545 311.658 C 202.105 324.307 204.081 336.925 208.363 348.835 C 208.281 348.896 208.179 348.923 208.075 348.916 C 204.315 341.573 202.007 328.45 201.522 318.647 C 200.686 330.732 201.837 342.876 204.929 354.591 C 204.813 354.663 204.675 354.696 204.536 354.682 C 199.607 342.885 197.747 319.367 199.948 308.354 C 189.723 307.74 166.495 299.034 156.348 290.08 C 156.348 290.08 156.453 289.792 156.557 289.754 C 166.645 296.414 177.757 301.372 189.447 304.435 C 180.337 300.803 168.71 294.42 162.967 288.522 C 163.001 288.42 163.064 288.333 163.152 288.272 C 173.07 296.154 184.403 302.07 196.539 305.706 C 186.315 300.464 170.478 288.455 164.514 279.056 C 164.514 279.056 164.671 278.834 164.803 278.82 C 174.002 289.554 185.206 298.391 197.785 304.842 C 187.876 297.646 174.477 288.311 167.633 275.372 C 167.633 275.372 167.818 275.164 167.935 275.164 C 174.385 284.103 182.189 291.979 191.073 298.51 C 183.326 290.16 174.845 277.876 172.629 268.766 C 172.743 268.66 172.883 268.59 173.036 268.569 C 177.469 279.207 183.871 288.915 191.899 297.187 C 186.092 289.833 179.997 280.145 177.95 272.974 C 178.026 272.897 178.123 272.849 178.227 272.842 C 183.17 284.276 190.211 294.682 198.992 303.519" style="fill: rgb(123, 106, 93); fill-rule: evenodd;"/>
  <path class="f" d="M 260.55 93.459 C 270.239 90.181 289.051 89.197 300.205 92.686 C 300.247 92.822 300.247 92.965 300.205 93.106 C 288.067 91.19 276.06 90.338 261.706 94.625 C 271.93 92.959 290.021 94.705 300.297 99.606 C 300.306 99.746 300.275 99.889 300.205 100.012 C 287.622 96.145 274.986 93.459 258.612 96.618 C 266.477 115.731 284.83 165.14 292.695 184.291 C 295.318 186.704 299.486 191.907 300.43 195.512 C 302.449 203.142 303.588 206.996 305.606 214.639 C 306.421 217.705 303.903 218.492 302.318 215.622 C 299.092 209.749 296.47 204.322 293.142 198.291 C 291.029 194.359 290.808 189.85 290.165 185.483 C 282.405 165.914 263.843 116.765 256.083 97.22 C 244.191 104.759 235.304 113.711 229.732 123.282 C 229.628 123.282 229.469 123.111 229.445 123.071 C 233.024 114.093 245.254 102.097 253.263 96.985 C 238.842 100.275 228.657 106.882 219.061 114.419 C 218.957 114.32 218.875 114.199 218.827 114.066 C 225.982 106.502 240.142 99.069 250.286 96.212 C 239.912 96.156 229.653 98.393 220.24 102.766 C 220.173 102.659 220.134 102.538 220.122 102.412 C 226.337 98.178 237.769 95.621 246.893 94.992 C 235.202 93.652 223.367 94.33 211.904 96.997 C 211.838 96.892 211.81 96.767 211.826 96.643 C 221.882 92.711 241.059 92.568 252.07 94.35 C 240.541 90.191 228.321 88.273 216.072 88.701 C 216.034 88.603 216.034 88.495 216.072 88.398 C 223.938 87.087 236.746 88.884 245.935 91.309 C 235.063 86.949 223.548 84.402 211.852 83.771 C 211.786 83.667 211.852 83.43 211.852 83.39 C 224.134 82.327 246.42 87.612 255.911 92.907 C 259.516 83.653 274.435 64.841 285.694 58.141 C 285.694 58.141 285.917 58.313 285.931 58.443 C 276.805 65.76 268.938 74.519 262.635 84.374 C 268.692 77.058 278.027 68.235 285.158 64.709 C 285.158 64.709 285.327 64.841 285.327 64.933 C 275.126 71.742 266.313 80.43 259.357 90.535 C 267.225 82.671 282.954 71.633 293.443 68.917 C 293.443 68.917 293.6 69.141 293.586 69.27 C 280.914 74.538 269.393 82.232 259.673 91.923 C 269.244 84.937 281.827 75.355 295.762 72.903 C 295.839 73.004 295.882 73.128 295.881 73.258 C 285.727 76.554 276.149 81.419 267.499 87.676 C 277.476 83.024 291.331 78.855 300.378 79.51 C 300.418 79.646 300.418 79.793 300.378 79.93 C 289.255 80.867 278.407 83.89 268.404 88.844 C 276.899 85.672 287.674 82.932 294.858 83.167 C 294.89 83.26 294.89 83.362 294.858 83.456 C 282.852 84.614 271.171 88.022 260.42 93.497" style="fill: rgb(182, 183, 78); fill-rule: evenodd;"/>
  <path class="e" d="M 228.921 198.16 C 230.939 191.252 237.964 180.004 244.48 174.985 C 244.575 175.017 244.659 175.081 244.716 175.166 C 238.726 181.393 233.364 187.988 230.048 197.99 C 233.205 191.435 241.517 181.682 248.504 177.737 C 248.504 177.737 248.687 177.867 248.701 177.958 C 241.399 183.661 234.752 189.874 229.955 200.573 C 244.138 203.77 259.7 207.572 273.923 210.745 C 276.388 210.182 281.041 209.907 283.519 210.745 C 288.761 212.66 291.384 213.564 296.627 215.478 C 298.725 216.25 298.174 218.021 295.868 217.771 C 291.175 217.261 286.992 216.592 282.181 216.054 C 279.089 215.714 276.361 213.997 273.595 212.593 C 259.175 209.172 243.681 205.607 229.26 202.185 C 228.656 210.981 230.167 219.797 233.665 227.891 C 233.665 227.891 233.455 227.984 233.43 227.984 C 229.693 222.294 227.727 210.418 227.989 203.705 C 224.057 213.381 223.768 221.9 224.239 230.474 C 224.143 230.507 224.036 230.507 223.938 230.474 C 222.457 223.303 223.938 212.121 226.325 205.134 C 222.105 211.1 219.257 217.926 217.987 225.125 C 217.893 225.125 217.801 225.098 217.725 225.047 C 217.725 219.804 220.924 212.135 224.279 206.616 C 218.793 212.816 214.409 219.91 211.314 227.59 C 211.223 227.585 211.138 227.552 211.064 227.498 C 212.886 220.132 220.516 208.989 225.982 203.35 C 218.937 208.33 212.9 214.603 208.194 221.836 C 208.194 221.836 208.037 221.717 208.023 221.704 C 210.462 216.631 216.637 209.972 221.749 205.645 C 214.836 210.166 208.712 215.789 203.618 222.294 C 203.54 222.294 203.423 222.151 203.409 222.137 C 207.748 214.612 219.796 203.889 226.679 200.559 C 222.745 194.752 217.973 178.548 218.655 169.347 C 218.744 169.318 218.842 169.318 218.929 169.347 C 219.465 177.575 221.343 185.661 224.489 193.284 C 222.718 186.835 221.381 177.894 222.235 172.31 C 222.301 172.283 222.376 172.283 222.444 172.31 C 222.251 180.942 223.7 189.531 226.717 197.624 C 225.407 189.888 225.407 176.359 228.028 169.24 C 228.028 169.24 228.224 169.24 228.278 169.24 C 226.237 178.658 226.048 188.381 227.727 197.873 C 227.557 189.535 227.11 178.406 231.318 169.372 C 231.318 169.372 231.515 169.372 231.568 169.451 C 229.36 176.634 228.295 184.118 228.409 191.631 C 229.718 183.99 232.93 174.328 236.967 169.347 C 237.068 169.366 237.157 169.411 237.231 169.477 C 233.279 176.269 230.644 183.745 229.469 191.515 C 231.055 185.326 233.835 178.01 236.864 173.96 C 236.864 173.96 237.02 173.96 237.048 174.065 C 232.875 181.459 230.127 189.569 228.945 197.977" style="fill: rgb(123, 106, 93); fill-rule: evenodd;"/>
  <path class="c" d="M 318.664 278.597 C 311.649 280.25 298.411 279.659 290.834 276.474 C 290.805 276.376 290.805 276.271 290.834 276.173 C 299.209 278.334 307.573 279.752 317.918 277.707 C 310.641 278.178 298.082 275.74 291.214 271.596 C 291.22 271.497 291.25 271.403 291.306 271.322 C 299.866 274.874 308.531 277.602 320.225 276.566 C 316.016 262.631 311.677 247.228 307.443 233.305 C 305.739 231.431 303.208 227.512 302.776 224.915 C 301.884 219.436 301.333 216.645 300.442 211.164 C 300.076 208.961 301.898 208.543 302.802 210.693 C 304.677 215.031 306.145 219.003 308.046 223.448 C 309.265 226.319 309.12 229.53 309.265 232.623 C 313.38 246.861 317.904 262.106 322.02 276.329 C 329.99 272.513 336.929 266.844 342.261 259.799 C 342.326 259.799 342.431 259.931 342.444 259.955 C 339.323 266.012 329.964 273.564 323.999 276.644 C 334.356 275.333 341.907 271.4 349.156 266.733 C 349.221 266.808 349.266 266.899 349.287 266.996 C 343.769 271.807 333.333 276.068 326.046 277.379 C 333.315 278.101 340.659 277.207 347.544 274.758 C 347.57 274.842 347.57 274.931 347.544 275.018 C 342.915 277.575 334.735 278.584 328.285 278.414 C 336.39 280.139 344.731 280.462 352.945 279.37 C 352.972 279.452 352.972 279.538 352.945 279.621 C 345.655 281.665 332.192 280.498 324.603 278.519 C 332.402 282.21 340.832 284.381 349.444 284.916 C 349.471 284.983 349.471 285.058 349.444 285.125 C 343.833 285.492 335.023 283.396 328.705 281.076 C 336.049 284.87 343.961 287.439 352.132 288.678 C 352.132 288.745 352.132 288.901 352.132 288.942 C 343.454 288.861 328.193 283.697 321.903 279.306 C 318.756 285.545 307.035 297.66 298.687 301.591 C 298.617 301.532 298.566 301.454 298.542 301.368 C 305.433 296.855 311.542 291.245 316.62 284.76 C 311.886 289.478 304.743 295.036 299.512 297.028 C 299.512 297.028 299.393 296.91 299.407 296.858 C 307.021 292.782 313.789 287.292 319.346 280.681 C 313.276 285.65 301.505 292.324 294.006 293.527 C 294.006 293.527 293.915 293.359 293.94 293.279 C 303.141 290.461 311.704 285.885 319.162 279.804 C 311.992 284.05 302.515 289.91 292.59 290.683 C 292.564 290.604 292.564 290.514 292.59 290.435 C 299.921 288.794 306.949 286.016 313.421 282.203 C 306.106 284.824 296.129 286.778 289.826 285.715 C 289.794 285.617 289.794 285.512 289.826 285.414 C 297.682 285.511 305.486 284.129 312.832 281.338 C 306.658 282.99 298.922 284.169 293.915 283.527 C 293.893 283.463 293.893 283.392 293.915 283.329 C 302.409 283.322 310.826 281.721 318.73 278.611" style="fill: rgb(169, 154, 141); fill-rule: evenodd;"/>
  <path class="e" d="M 524.962 139.444 C 526.574 148.805 524.765 166.175 519.954 175.887 C 519.823 175.893 519.689 175.862 519.573 175.797 C 523.06 164.956 525.59 154.06 523.73 140.31 C 523.73 149.918 519.573 166.239 513.596 174.957 C 513.463 174.94 513.339 174.89 513.23 174.813 C 518.59 163.84 522.864 152.645 522.406 137.204 C 503.764 141.634 455.85 151.308 437.196 155.777 C 434.575 157.863 429.239 160.891 425.791 161.245 C 418.529 161.993 414.819 162.477 407.529 163.226 C 404.594 163.527 404.227 161.113 407.099 160.078 C 412.959 157.955 418.306 156.342 424.298 154.206 C 428.23 152.828 432.371 153.276 436.461 153.329 C 455.51 149.028 503.214 139.117 522.235 134.83 C 516.991 122.849 510.122 113.41 502.164 106.935 C 502.164 106.842 502.362 106.712 502.388 106.698 C 510.108 111.273 519.286 124.2 522.864 132.275 C 521.934 118.549 517.346 108.31 511.825 98.427 C 511.93 98.344 512.052 98.29 512.18 98.268 C 518.079 105.912 522.85 119.964 523.978 129.652 C 525.517 120.153 524.938 110.43 522.287 101.179 C 522.399 101.145 522.518 101.145 522.629 101.179 C 525.618 107.484 526.311 118.312 525.565 126.769 C 528.476 116.25 529.567 105.313 528.789 94.428 C 528.868 94.362 529.077 94.428 529.13 94.428 C 531.229 104.195 528.645 121.8 525.433 131.618 C 530.902 121.654 534.425 110.741 535.817 99.462 C 535.901 99.432 535.993 99.432 536.078 99.462 C 536.078 106.868 532.671 118.326 529.117 126.401 C 534.666 117.059 538.651 106.875 540.916 96.25 C 541.035 96.239 541.153 96.269 541.256 96.328 C 540.456 107.734 532.408 127.383 526.181 135.329 C 534.137 139.956 549.239 156.303 553.71 167.631 C 553.628 167.716 553.524 167.775 553.408 167.8 C 548.02 158.382 541.13 149.907 533.01 142.708 C 538.831 149.263 545.569 159.134 547.77 166.186 C 547.713 166.259 547.628 166.307 547.536 166.319 C 542.788 155.976 536.113 146.635 527.871 138.789 C 533.915 147.153 541.766 163.159 542.751 173.109 C 542.65 173.166 542.538 173.192 542.423 173.187 C 539.394 160.856 533.993 149.235 526.52 138.972 C 531.544 148.752 538.516 161.651 538.739 174.774 C 538.633 174.813 538.517 174.813 538.411 174.774 C 536.86 164.994 533.786 155.52 529.302 146.696 C 532.133 156.512 533.941 169.806 532.053 177.998 C 531.926 178.039 531.789 178.039 531.66 177.998 C 532.411 167.666 531.2 157.284 528.094 147.403 C 529.774 155.648 530.716 165.899 529.485 172.452 C 529.485 172.452 529.288 172.452 529.209 172.452 C 529.876 161.285 528.436 150.092 524.962 139.458" style="fill: rgb(123, 106, 93); fill-rule: evenodd;"/>
  <path class="d" d="M 544.14 42.228 C 547.549 49.883 549.737 65.129 547.718 74.477 C 547.604 74.506 547.482 74.506 547.364 74.477 C 548.021 64.448 547.837 54.602 543.261 43.225 C 545.384 51.43 545.308 66.297 542.068 75.04 C 541.959 75.07 541.84 75.07 541.728 75.04 C 543.931 64.551 545.163 54.065 541.413 40.957 C 526.458 48.678 509.794 56.949 494.785 64.815 C 493.002 67.161 489.082 70.912 486.21 71.946 C 480.154 74.162 477.034 75.381 471.03 77.583 C 468.579 78.474 467.741 76.482 469.969 74.962 C 474.519 71.894 478.738 69.351 483.406 66.217 C 486.407 64.198 490.105 63.687 493.616 62.848 C 508.981 55.062 525.42 46.619 540.811 38.834 C 533.783 29.658 525.84 23.101 517.621 19.312 C 517.621 19.234 517.751 19.077 517.764 19.05 C 525.355 21.305 536.001 30.365 540.811 36.512 C 537.036 24.963 530.901 17.203 524.044 9.939 C 524.044 9.849 524.279 9.731 524.306 9.718 C 531.005 14.96 538.124 25.974 541.19 33.995 C 540.455 25.537 537.864 17.346 533.6 10.006 C 533.6 9.926 533.836 9.888 533.864 9.874 C 537.795 14.62 540.731 23.744 541.911 31.124 C 542.115 21.499 540.677 11.91 537.664 2.77 C 537.747 2.706 537.849 2.673 537.954 2.678 C 541.885 10.544 543.459 26.196 542.829 35.28 C 545.353 25.579 546.007 15.491 544.757 5.548 C 544.832 5.517 544.916 5.517 544.993 5.548 C 546.619 11.88 546.147 22.42 544.848 30.088 C 547.587 20.892 548.805 11.311 548.453 1.721 C 548.555 1.69 548.666 1.69 548.766 1.721 C 550.536 11.643 547.902 30.194 544.285 38.322 C 552.15 40.563 568.536 51.312 574.828 60.004 C 574.828 60.004 574.684 60.199 574.593 60.213 C 567.947 53.329 560.226 47.573 551.73 43.172 C 558.14 47.563 566.019 54.498 569.453 60.056 C 569.453 60.056 569.335 60.199 569.257 60.213 C 562.957 52.404 555.225 45.867 546.473 40.957 C 553.461 46.816 563.622 58.797 566.622 67.095 C 566.548 67.163 566.458 67.209 566.361 67.228 C 561.115 57.336 553.99 48.563 545.384 41.403 C 551.81 48.678 560.54 58.222 563.569 69.389 C 563.569 69.389 563.385 69.521 563.28 69.495 C 559.83 61.47 555.14 54.038 549.384 47.471 C 553.919 55.273 558.351 66.23 558.495 73.689 C 558.394 73.753 558.273 73.78 558.154 73.77 C 556.569 64.777 553.299 56.166 548.518 48.389 C 551.73 55.074 554.759 63.647 555.074 69.507 C 555.074 69.507 554.917 69.586 554.837 69.507 C 553.005 59.826 549.378 50.573 544.14 42.228" style="fill: rgb(108, 175, 182); fill-rule: evenodd;"/>
  <path class="h" d="M 675.571 133.703 C 672.162 142.592 661.689 156.657 652.553 162.543 C 652.553 162.543 652.303 162.386 652.263 162.281 C 660.852 154.717 668.597 146.615 674.051 133.793 C 669.175 142.105 657.167 154.036 647.543 158.479 C 647.543 158.479 647.322 158.282 647.308 158.178 C 657.547 151.453 666.972 143.994 674.457 130.4 C 656.105 124.657 609.804 108.442 591.386 102.7 C 588.082 103.184 581.907 103.041 578.749 101.573 C 572.088 98.493 568.641 97.011 561.968 93.917 C 559.347 92.606 560.21 90.404 563.28 90.981 C 569.401 92.16 574.854 93.511 581.121 94.729 C 585.171 95.531 588.554 98.074 592.067 100.21 C 610.708 106.278 656.944 122.181 675.571 128.237 C 677.237 115.233 676.096 103.552 672.557 93.878 C 672.655 93.816 672.77 93.784 672.884 93.785 C 677.183 101.651 678.482 117.553 677.42 126.363 C 683.659 114.039 684.957 102.856 685.286 91.493 C 685.417 91.458 685.55 91.458 685.678 91.493 C 686.845 101.101 683.764 115.678 679.78 124.631 C 685.966 117.219 690.442 108.537 692.889 99.201 C 693.001 99.213 693.109 99.255 693.202 99.319 C 692.548 106.292 687.594 116.006 682.611 122.914 C 690.509 115.339 697.057 106.474 701.972 96.696 C 702.065 96.696 702.236 96.814 702.274 96.841 C 699.076 106.344 687.855 120.212 679.989 126.991 C 689.799 121.218 698.418 113.629 705.381 104.626 C 705.472 104.663 705.544 104.727 705.591 104.811 C 701.829 111.221 692.981 119.335 685.772 124.473 C 695.368 119.26 704.046 112.511 711.464 104.496 C 711.57 104.496 711.713 104.693 711.727 104.731 C 705.171 114.157 688.13 127.018 678.731 130.648 C 683.214 138.723 687.815 160.589 685.928 172.598 C 685.928 172.598 685.654 172.598 685.574 172.598 C 685.759 161.705 684.162 150.856 680.842 140.479 C 682.479 149.172 683.267 161.102 681.564 168.311 C 681.474 168.341 681.375 168.341 681.287 168.311 C 682.475 156.951 681.493 145.468 678.389 134.476 C 679.308 144.807 677.893 162.649 673.631 171.731 C 673.514 171.729 673.401 171.693 673.303 171.627 C 677.007 159.435 678.303 146.639 677.119 133.952 C 676.437 144.964 675.808 159.672 669.252 171.116 C 669.135 171.102 669.022 171.055 668.926 170.986 C 672.601 161.773 674.812 152.042 675.479 142.145 C 672.858 152.083 667.615 164.431 661.807 170.566 C 661.675 170.533 661.555 170.459 661.468 170.357 C 667.435 161.838 671.746 152.272 674.169 142.158 C 671.403 150.129 666.946 159.475 662.529 164.443 C 662.529 164.443 662.332 164.443 662.293 164.3 C 668.586 155.004 673.085 144.614 675.559 133.663" style="fill: rgb(133, 162, 168); fill-rule: evenodd;"/>
  <path class="f" d="M 704.071 39.908 C 706.076 48.036 705.553 63.439 701.934 72.273 C 701.823 72.31 701.704 72.31 701.593 72.273 C 703.992 62.521 705.526 52.793 703.048 40.812 C 703.69 49.267 701.016 63.883 696.272 71.92 C 696.272 71.92 696.009 71.92 695.957 71.816 C 699.967 61.825 703.035 51.72 701.633 38.164 C 685.495 43.211 667.641 48.455 651.49 53.542 C 649.341 55.533 644.806 58.537 641.803 59.072 C 635.458 60.175 632.221 60.829 625.863 61.944 C 623.239 62.39 622.833 60.28 625.286 59.19 C 630.306 56.976 634.894 55.259 640.046 52.951 C 643.363 51.495 647.085 51.641 650.691 51.419 C 667.195 46.463 684.852 41.021 701.318 36.067 C 695.995 25.841 689.335 17.988 681.917 12.772 C 681.917 12.679 682.073 12.563 682.102 12.535 C 689.179 16.088 698.066 26.876 701.764 33.772 C 700.086 21.752 695.42 13.021 689.966 4.67 C 690.052 4.592 690.155 4.538 690.267 4.514 C 695.93 10.87 701.004 22.932 702.603 31.385 C 703.377 22.946 702.273 14.439 699.364 6.481 C 699.456 6.425 699.56 6.397 699.666 6.4 C 702.707 11.75 703.979 21.253 703.848 28.686 C 705.749 19.251 706.028 9.56 704.674 0.029 C 704.674 -0.036 704.935 0.029 704.961 0.029 C 707.414 8.497 706.274 24.137 704.019 32.986 C 708.218 23.884 710.639 14.065 711.15 4.054 C 711.228 4.02 711.312 4.02 711.385 4.054 C 711.884 10.609 709.563 20.861 706.942 28.188 C 711.266 19.616 714.147 10.39 715.477 0.882 C 715.573 0.851 715.68 0.851 715.779 0.882 C 715.779 10.962 709.931 28.765 704.95 36.132 C 712.224 39.711 726.526 53.174 731.168 62.836 C 731.098 62.922 731 62.982 730.893 63.005 C 725.571 55.056 718.987 48.027 711.398 42.202 C 716.93 47.654 723.459 55.862 725.818 61.93 C 725.77 61.994 725.7 62.039 725.622 62.062 C 720.794 53.263 714.324 45.471 706.562 39.107 C 712.42 46.095 720.313 59.688 721.795 68.382 C 721.795 68.382 721.596 68.487 721.519 68.458 C 718.092 57.778 712.611 47.868 705.381 39.291 C 710.402 47.576 717.323 58.496 718.36 70.033 C 718.36 70.033 718.15 70.124 718.071 70.033 C 716.098 61.524 712.806 53.377 708.318 45.886 C 711.412 54.353 713.836 65.929 712.684 73.258 C 712.568 73.293 712.445 73.293 712.329 73.258 C 712.342 64.129 710.636 55.079 707.308 46.579 C 709.288 53.725 710.757 62.704 710.076 68.539 C 709.994 68.565 709.907 68.565 709.826 68.539 C 709.722 58.719 707.769 49.005 704.071 39.908" style="fill: rgb(182, 183, 78); fill-rule: evenodd;"/>
  <path class="c" d="M 802.979 106.319 C 807.778 111.746 813.557 123.753 814.319 131.999 C 814.231 132.049 814.132 132.079 814.029 132.09 C 811.972 123.648 809.231 115.573 802.52 107.366 C 806.452 113.579 810.202 125.863 809.809 133.925 C 809.71 133.955 809.606 133.955 809.507 133.925 C 808.59 124.657 806.886 115.678 800.329 105.848 C 789.988 116.189 762.746 141.661 752.404 152.042 C 751.551 154.442 749.283 158.597 747.16 160.158 C 742.742 163.551 740.527 165.401 736.097 168.758 C 734.3 170.068 733.106 168.758 734.55 166.882 C 737.511 163.159 740.33 159.973 743.358 156.173 C 745.325 153.721 748.234 152.344 750.91 150.733 C 761.58 140.31 788.586 114.76 799.216 104.352 C 792.071 99.107 783.773 95.65 775.017 94.271 C 774.989 94.19 774.989 94.102 775.017 94.022 C 781.861 93.903 793.003 98.622 798.612 102.436 C 792.504 93.89 785.426 89.079 777.876 84.87 C 777.876 84.78 778.019 84.649 778.059 84.623 C 784.954 87.245 793.672 94.442 798.298 100.275 C 795.498 93.486 791.227 87.402 785.793 82.459 C 785.841 82.38 785.911 82.319 785.989 82.275 C 790.46 85.174 795.243 91.937 798.142 97.718 C 795.816 89.725 792.141 82.186 787.274 75.433 C 787.274 75.355 787.459 75.288 787.483 75.276 C 792.728 80.78 798.142 93.249 799.99 100.918 C 799.544 92.257 797.459 83.761 793.841 75.879 C 793.892 75.823 793.964 75.796 794.039 75.799 C 797.027 80.597 799.374 89.422 800.291 96.079 C 800.165 87.778 798.672 79.554 795.873 71.736 C 795.951 71.68 796.042 71.647 796.135 71.644 C 800.187 79.366 802.848 95.372 801.97 103.014 C 808.983 102.845 825.354 107.433 832.789 112.965 C 832.776 113.057 832.73 113.139 832.658 113.202 C 825.388 109.238 817.519 106.492 809.363 105.074 C 815.786 107.027 824.098 110.711 828.357 114.393 C 828.357 114.393 828.357 114.551 828.253 114.576 C 821.023 109.773 812.944 106.391 804.447 104.613 C 811.735 107.629 823.231 114.878 827.846 120.947 C 827.846 120.947 827.741 121.118 827.663 121.132 C 820.774 114.368 812.634 109.013 803.7 105.361 C 810.883 109.701 820.571 115.285 825.985 123.713 C 825.985 123.713 825.88 123.872 825.788 123.885 C 820.865 118.153 815.076 113.232 808.629 109.293 C 814.411 114.537 820.899 122.402 822.957 128.524 C 822.882 128.597 822.793 128.65 822.695 128.682 C 819.045 121.674 814.103 115.421 808.131 110.251 C 812.536 114.93 817.307 121.209 819.077 125.981 C 819.03 126.034 818.974 126.073 818.907 126.1 C 814.858 118.58 809.44 111.882 802.926 106.357" style="fill: rgb(169, 154, 141); fill-rule: evenodd;"/>
</svg>